<?xml version="1.0" encoding="UTF-8" standalone="no"?>
<!DOCTYPE svg PUBLIC "-//W3C//DTD SVG 1.1//EN"
 "http://www.w3.org/Graphics/SVG/1.1/DTD/svg11.dtd">
<!-- Generated by graphviz version 14.1.0 (20251206.1807)
 -->
<!-- Title: evaluation_trace Pages: 1 -->
<svg width="182pt" height="346pt"
 viewBox="0.00 0.00 182.00 346.00" xmlns="http://www.w3.org/2000/svg" xmlns:xlink="http://www.w3.org/1999/xlink">
<g id="graph0" class="graph" transform="scale(1 1) rotate(0) translate(4 342)">
<title>evaluation_trace</title>
<polygon fill="white" stroke="none" points="-4,4 -4,-342 178.25,-342 178.25,4 -4,4"/>
<!-- node0 -->
<g id="node1" class="node">
<title>node0</title>
<polygon fill="#d0e8f2" stroke="black" points="174.25,-338 0,-338 0,-280.5 174.25,-280.5 174.25,-338"/>
<text xml:space="preserve" text-anchor="middle" x="87.12" y="-320.7" font-family="Times,serif" font-size="14.00">sumList OF normalizedAges</text>
<text xml:space="preserve" text-anchor="middle" x="87.12" y="-304.2" font-family="Times,serif" font-size="14.00">────────────────</text>
<text xml:space="preserve" text-anchor="middle" x="87.12" y="-287.7" font-family="Times,serif" font-size="14.00">80</text>
</g>
<!-- node2 -->
<g id="node2" class="node">
<title>node2</title>
<polygon fill="#d0e8f2" stroke="black" points="173.12,-244.5 1.12,-244.5 1.12,-187 173.12,-187 173.12,-244.5"/>
<text xml:space="preserve" text-anchor="middle" x="87.12" y="-227.2" font-family="Times,serif" font-size="14.00">sumList OF zs</text>
<text xml:space="preserve" text-anchor="middle" x="87.12" y="-210.7" font-family="Times,serif" font-size="14.00">────────────────</text>
<text xml:space="preserve" text-anchor="middle" x="87.12" y="-194.2" font-family="Times,serif" font-size="14.00">38</text>
</g>
<!-- node0&#45;&gt;node2 -->
<g id="edge3" class="edge">
<title>node0&#45;&gt;node2</title>
<path fill="none" stroke="#2ca02c" stroke-width="2" d="M87.12,-280.3C87.12,-273.18 87.12,-265.38 87.12,-257.76"/>
<polygon fill="#2ca02c" stroke="#2ca02c" stroke-width="2" points="90.63,-257.87 87.13,-247.87 83.63,-257.87 90.63,-257.87"/>
</g>
<!-- node4 -->
<g id="node3" class="node">
<title>node4</title>
<polygon fill="#d0e8f2" stroke="black" points="173.12,-151 1.12,-151 1.12,-93.5 173.12,-93.5 173.12,-151"/>
<text xml:space="preserve" text-anchor="middle" x="87.12" y="-133.7" font-family="Times,serif" font-size="14.00">sumList OF zs</text>
<text xml:space="preserve" text-anchor="middle" x="87.12" y="-117.2" font-family="Times,serif" font-size="14.00">────────────────</text>
<text xml:space="preserve" text-anchor="middle" x="87.12" y="-100.7" font-family="Times,serif" font-size="14.00">11</text>
</g>
<!-- node2&#45;&gt;node4 -->
<g id="edge2" class="edge">
<title>node2&#45;&gt;node4</title>
<path fill="none" stroke="#2ca02c" stroke-width="2" d="M87.12,-186.8C87.12,-179.68 87.12,-171.88 87.12,-164.26"/>
<polygon fill="#2ca02c" stroke="#2ca02c" stroke-width="2" points="90.63,-164.37 87.13,-154.37 83.63,-164.37 90.63,-164.37"/>
</g>
<!-- node6 -->
<g id="node4" class="node">
<title>node6</title>
<polygon fill="#d0e8f2" stroke="black" points="173.12,-57.5 1.12,-57.5 1.12,0 173.12,0 173.12,-57.5"/>
<text xml:space="preserve" text-anchor="middle" x="87.12" y="-40.2" font-family="Times,serif" font-size="14.00">sumList OF zs</text>
<text xml:space="preserve" text-anchor="middle" x="87.12" y="-23.7" font-family="Times,serif" font-size="14.00">────────────────</text>
<text xml:space="preserve" text-anchor="middle" x="87.12" y="-7.2" font-family="Times,serif" font-size="14.00">0</text>
</g>
<!-- node4&#45;&gt;node6 -->
<g id="edge1" class="edge">
<title>node4&#45;&gt;node6</title>
<path fill="none" stroke="#2ca02c" stroke-width="2" d="M87.12,-93.3C87.12,-86.18 87.12,-78.38 87.12,-70.76"/>
<polygon fill="#2ca02c" stroke="#2ca02c" stroke-width="2" points="90.63,-70.87 87.13,-60.87 83.63,-70.87 90.63,-70.87"/>
</g>
</g>
</svg>
