<?xml version="1.0" encoding="UTF-8" standalone="no"?>
<!DOCTYPE svg PUBLIC "-//W3C//DTD SVG 1.1//EN"
 "http://www.w3.org/Graphics/SVG/1.1/DTD/svg11.dtd">
<!-- Generated by graphviz version 14.1.0 (20251206.1807)
 -->
<!-- Title: evaluation_trace Pages: 1 -->
<svg width="180pt" height="159pt"
 viewBox="0.00 0.00 180.00 159.00" xmlns="http://www.w3.org/2000/svg" xmlns:xlink="http://www.w3.org/1999/xlink">
<g id="graph0" class="graph" transform="scale(1 1) rotate(0) translate(4 155)">
<title>evaluation_trace</title>
<polygon fill="white" stroke="none" points="-4,4 -4,-155 176,-155 176,4 -4,4"/>
<!-- node0 -->
<g id="node1" class="node">
<title>node0</title>
<polygon fill="#d0e8f2" stroke="black" points="172,-151 0,-151 0,-93.5 172,-93.5 172,-151"/>
<text xml:space="preserve" text-anchor="middle" x="86" y="-133.7" font-family="Times,serif" font-size="14.00">safeResult OF FALSE</text>
<text xml:space="preserve" text-anchor="middle" x="86" y="-117.2" font-family="Times,serif" font-size="14.00">────────────────</text>
<text xml:space="preserve" text-anchor="middle" x="86" y="-100.7" font-family="Times,serif" font-size="14.00">42</text>
</g>
<!-- node2 -->
<g id="node2" class="node">
<title>node2</title>
<polygon fill="#d0e8f2" stroke="black" points="172,-57.5 0,-57.5 0,0 172,0 172,-57.5"/>
<text xml:space="preserve" text-anchor="middle" x="86" y="-40.2" font-family="Times,serif" font-size="14.00">condition</text>
<text xml:space="preserve" text-anchor="middle" x="86" y="-23.7" font-family="Times,serif" font-size="14.00">────────────────</text>
<text xml:space="preserve" text-anchor="middle" x="86" y="-7.2" font-family="Times,serif" font-size="14.00">FALSE</text>
</g>
<!-- node0&#45;&gt;node2 -->
<g id="edge1" class="edge">
<title>node0&#45;&gt;node2</title>
<path fill="none" stroke="#2ca02c" stroke-width="2" d="M86,-93.3C86,-86.18 86,-78.38 86,-70.76"/>
<polygon fill="#2ca02c" stroke="#2ca02c" stroke-width="2" points="89.5,-70.87 86,-60.87 82.5,-70.87 89.5,-70.87"/>
</g>
</g>
</svg>
