<?xml version="1.0" encoding="UTF-8" standalone="no"?>
<!DOCTYPE svg PUBLIC "-//W3C//DTD SVG 1.1//EN"
 "http://www.w3.org/Graphics/SVG/1.1/DTD/svg11.dtd">
<!-- Generated by graphviz version 14.1.0 (20251206.1807)
 -->
<!-- Title: evaluation_trace Pages: 1 -->
<svg width="1225pt" height="627pt"
 viewBox="0.00 0.00 1225.00 627.00" xmlns="http://www.w3.org/2000/svg" xmlns:xlink="http://www.w3.org/1999/xlink">
<g id="graph0" class="graph" transform="scale(1 1) rotate(0) translate(4 622.5)">
<title>evaluation_trace</title>
<polygon fill="white" stroke="none" points="-4,4 -4,-622.5 1221,-622.5 1221,4 -4,4"/>
<!-- node0 -->
<g id="node1" class="node">
<title>node0</title>
<polygon fill="#d0e8f2" stroke="black" points="267,-618.5 95,-618.5 95,-561 267,-561 267,-618.5"/>
<text xml:space="preserve" text-anchor="middle" x="181" y="-601.2" font-family="Times,serif" font-size="14.00">factorial OF 6</text>
<text xml:space="preserve" text-anchor="middle" x="181" y="-584.7" font-family="Times,serif" font-size="14.00">────────────────</text>
<text xml:space="preserve" text-anchor="middle" x="181" y="-568.2" font-family="Times,serif" font-size="14.00">720</text>
</g>
<!-- node2 -->
<g id="node2" class="node">
<title>node2</title>
<polygon fill="#d0e8f2" stroke="black" points="172,-525 0,-525 0,-467.5 172,-467.5 172,-525"/>
<text xml:space="preserve" text-anchor="middle" x="86" y="-507.7" font-family="Times,serif" font-size="14.00">n AT MOST 1</text>
<text xml:space="preserve" text-anchor="middle" x="86" y="-491.2" font-family="Times,serif" font-size="14.00">────────────────</text>
<text xml:space="preserve" text-anchor="middle" x="86" y="-474.7" font-family="Times,serif" font-size="14.00">FALSE</text>
</g>
<!-- node0&#45;&gt;node2 -->
<g id="edge1" class="edge">
<title>node0&#45;&gt;node2</title>
<path fill="none" stroke="#2ca02c" stroke-width="2" d="M151.72,-560.55C143.06,-552.21 133.45,-542.95 124.31,-534.15"/>
<polygon fill="#2ca02c" stroke="#2ca02c" stroke-width="2" points="126.83,-531.72 117.2,-527.3 121.97,-536.76 126.83,-531.72"/>
</g>
<!-- node3 -->
<g id="node3" class="node">
<title>node3</title>
<polygon fill="#d0e8f2" stroke="black" points="362,-525 190,-525 190,-467.5 362,-467.5 362,-525"/>
<text xml:space="preserve" text-anchor="middle" x="276" y="-507.7" font-family="Times,serif" font-size="14.00">factorial OF (n MINUS 1)</text>
<text xml:space="preserve" text-anchor="middle" x="276" y="-491.2" font-family="Times,serif" font-size="14.00">────────────────</text>
<text xml:space="preserve" text-anchor="middle" x="276" y="-474.7" font-family="Times,serif" font-size="14.00">120</text>
</g>
<!-- node0&#45;&gt;node3 -->
<g id="edge16" class="edge">
<title>node0&#45;&gt;node3</title>
<path fill="none" stroke="#2ca02c" stroke-width="2" d="M210.28,-560.55C218.94,-552.21 228.55,-542.95 237.69,-534.15"/>
<polygon fill="#2ca02c" stroke="#2ca02c" stroke-width="2" points="240.03,-536.76 244.8,-527.3 235.17,-531.72 240.03,-536.76"/>
</g>
<!-- node4 -->
<g id="node4" class="node">
<title>node4</title>
<polygon fill="#d0e8f2" stroke="black" points="172,-431.5 0,-431.5 0,-374 172,-374 172,-431.5"/>
<text xml:space="preserve" text-anchor="middle" x="86" y="-414.2" font-family="Times,serif" font-size="14.00">n MINUS 1</text>
<text xml:space="preserve" text-anchor="middle" x="86" y="-397.7" font-family="Times,serif" font-size="14.00">────────────────</text>
<text xml:space="preserve" text-anchor="middle" x="86" y="-381.2" font-family="Times,serif" font-size="14.00">5</text>
</g>
<!-- node3&#45;&gt;node4 -->
<g id="edge2" class="edge">
<title>node3&#45;&gt;node4</title>
<path fill="none" stroke="#2ca02c" stroke-width="2" d="M217.44,-467.05C198.03,-457.7 176.22,-447.2 156.03,-437.48"/>
<polygon fill="#2ca02c" stroke="#2ca02c" stroke-width="2" points="157.62,-434.36 147.09,-433.17 154.58,-440.66 157.62,-434.36"/>
</g>
<!-- node6 -->
<g id="node5" class="node">
<title>node6</title>
<polygon fill="#d0e8f2" stroke="black" points="362,-431.5 190,-431.5 190,-374 362,-374 362,-431.5"/>
<text xml:space="preserve" text-anchor="middle" x="276" y="-414.2" font-family="Times,serif" font-size="14.00">n AT MOST 1</text>
<text xml:space="preserve" text-anchor="middle" x="276" y="-397.7" font-family="Times,serif" font-size="14.00">────────────────</text>
<text xml:space="preserve" text-anchor="middle" x="276" y="-381.2" font-family="Times,serif" font-size="14.00">FALSE</text>
</g>
<!-- node3&#45;&gt;node6 -->
<g id="edge3" class="edge">
<title>node3&#45;&gt;node6</title>
<path fill="none" stroke="#2ca02c" stroke-width="2" d="M276,-467.3C276,-460.18 276,-452.38 276,-444.76"/>
<polygon fill="#2ca02c" stroke="#2ca02c" stroke-width="2" points="279.5,-444.87 276,-434.87 272.5,-444.87 279.5,-444.87"/>
</g>
<!-- node7 -->
<g id="node6" class="node">
<title>node7</title>
<polygon fill="#d0e8f2" stroke="black" points="552,-431.5 380,-431.5 380,-374 552,-374 552,-431.5"/>
<text xml:space="preserve" text-anchor="middle" x="466" y="-414.2" font-family="Times,serif" font-size="14.00">factorial OF (n MINUS 1)</text>
<text xml:space="preserve" text-anchor="middle" x="466" y="-397.7" font-family="Times,serif" font-size="14.00">────────────────</text>
<text xml:space="preserve" text-anchor="middle" x="466" y="-381.2" font-family="Times,serif" font-size="14.00">24</text>
</g>
<!-- node3&#45;&gt;node7 -->
<g id="edge15" class="edge">
<title>node3&#45;&gt;node7</title>
<path fill="none" stroke="#2ca02c" stroke-width="2" d="M334.56,-467.05C353.97,-457.7 375.78,-447.2 395.97,-437.48"/>
<polygon fill="#2ca02c" stroke="#2ca02c" stroke-width="2" points="397.42,-440.66 404.91,-433.17 394.38,-434.36 397.42,-440.66"/>
</g>
<!-- node8 -->
<g id="node7" class="node">
<title>node8</title>
<polygon fill="#d0e8f2" stroke="black" points="362,-338 190,-338 190,-280.5 362,-280.5 362,-338"/>
<text xml:space="preserve" text-anchor="middle" x="276" y="-320.7" font-family="Times,serif" font-size="14.00">n MINUS 1</text>
<text xml:space="preserve" text-anchor="middle" x="276" y="-304.2" font-family="Times,serif" font-size="14.00">────────────────</text>
<text xml:space="preserve" text-anchor="middle" x="276" y="-287.7" font-family="Times,serif" font-size="14.00">4</text>
</g>
<!-- node7&#45;&gt;node8 -->
<g id="edge4" class="edge">
<title>node7&#45;&gt;node8</title>
<path fill="none" stroke="#2ca02c" stroke-width="2" d="M407.44,-373.55C388.03,-364.2 366.22,-353.7 346.03,-343.98"/>
<polygon fill="#2ca02c" stroke="#2ca02c" stroke-width="2" points="347.62,-340.86 337.09,-339.67 344.58,-347.16 347.62,-340.86"/>
</g>
<!-- node10 -->
<g id="node8" class="node">
<title>node10</title>
<polygon fill="#d0e8f2" stroke="black" points="552,-338 380,-338 380,-280.5 552,-280.5 552,-338"/>
<text xml:space="preserve" text-anchor="middle" x="466" y="-320.7" font-family="Times,serif" font-size="14.00">n AT MOST 1</text>
<text xml:space="preserve" text-anchor="middle" x="466" y="-304.2" font-family="Times,serif" font-size="14.00">────────────────</text>
<text xml:space="preserve" text-anchor="middle" x="466" y="-287.7" font-family="Times,serif" font-size="14.00">FALSE</text>
</g>
<!-- node7&#45;&gt;node10 -->
<g id="edge5" class="edge">
<title>node7&#45;&gt;node10</title>
<path fill="none" stroke="#2ca02c" stroke-width="2" d="M466,-373.8C466,-366.68 466,-358.88 466,-351.26"/>
<polygon fill="#2ca02c" stroke="#2ca02c" stroke-width="2" points="469.5,-351.37 466,-341.37 462.5,-351.37 469.5,-351.37"/>
</g>
<!-- node11 -->
<g id="node9" class="node">
<title>node11</title>
<polygon fill="#d0e8f2" stroke="black" points="742,-338 570,-338 570,-280.5 742,-280.5 742,-338"/>
<text xml:space="preserve" text-anchor="middle" x="656" y="-320.7" font-family="Times,serif" font-size="14.00">factorial OF (n MINUS 1)</text>
<text xml:space="preserve" text-anchor="middle" x="656" y="-304.2" font-family="Times,serif" font-size="14.00">────────────────</text>
<text xml:space="preserve" text-anchor="middle" x="656" y="-287.7" font-family="Times,serif" font-size="14.00">6</text>
</g>
<!-- node7&#45;&gt;node11 -->
<g id="edge14" class="edge">
<title>node7&#45;&gt;node11</title>
<path fill="none" stroke="#2ca02c" stroke-width="2" d="M524.56,-373.55C543.97,-364.2 565.78,-353.7 585.97,-343.98"/>
<polygon fill="#2ca02c" stroke="#2ca02c" stroke-width="2" points="587.42,-347.16 594.91,-339.67 584.38,-340.86 587.42,-347.16"/>
</g>
<!-- node12 -->
<g id="node10" class="node">
<title>node12</title>
<polygon fill="#d0e8f2" stroke="black" points="552,-244.5 380,-244.5 380,-187 552,-187 552,-244.5"/>
<text xml:space="preserve" text-anchor="middle" x="466" y="-227.2" font-family="Times,serif" font-size="14.00">n MINUS 1</text>
<text xml:space="preserve" text-anchor="middle" x="466" y="-210.7" font-family="Times,serif" font-size="14.00">────────────────</text>
<text xml:space="preserve" text-anchor="middle" x="466" y="-194.2" font-family="Times,serif" font-size="14.00">3</text>
</g>
<!-- node11&#45;&gt;node12 -->
<g id="edge6" class="edge">
<title>node11&#45;&gt;node12</title>
<path fill="none" stroke="#2ca02c" stroke-width="2" d="M597.44,-280.05C578.03,-270.7 556.22,-260.2 536.03,-250.48"/>
<polygon fill="#2ca02c" stroke="#2ca02c" stroke-width="2" points="537.62,-247.36 527.09,-246.17 534.58,-253.66 537.62,-247.36"/>
</g>
<!-- node14 -->
<g id="node11" class="node">
<title>node14</title>
<polygon fill="#d0e8f2" stroke="black" points="742,-244.5 570,-244.5 570,-187 742,-187 742,-244.5"/>
<text xml:space="preserve" text-anchor="middle" x="656" y="-227.2" font-family="Times,serif" font-size="14.00">n AT MOST 1</text>
<text xml:space="preserve" text-anchor="middle" x="656" y="-210.7" font-family="Times,serif" font-size="14.00">────────────────</text>
<text xml:space="preserve" text-anchor="middle" x="656" y="-194.2" font-family="Times,serif" font-size="14.00">FALSE</text>
</g>
<!-- node11&#45;&gt;node14 -->
<g id="edge7" class="edge">
<title>node11&#45;&gt;node14</title>
<path fill="none" stroke="#2ca02c" stroke-width="2" d="M656,-280.3C656,-273.18 656,-265.38 656,-257.76"/>
<polygon fill="#2ca02c" stroke="#2ca02c" stroke-width="2" points="659.5,-257.87 656,-247.87 652.5,-257.87 659.5,-257.87"/>
</g>
<!-- node15 -->
<g id="node12" class="node">
<title>node15</title>
<polygon fill="#d0e8f2" stroke="black" points="932,-244.5 760,-244.5 760,-187 932,-187 932,-244.5"/>
<text xml:space="preserve" text-anchor="middle" x="846" y="-227.2" font-family="Times,serif" font-size="14.00">factorial OF (n MINUS 1)</text>
<text xml:space="preserve" text-anchor="middle" x="846" y="-210.7" font-family="Times,serif" font-size="14.00">────────────────</text>
<text xml:space="preserve" text-anchor="middle" x="846" y="-194.2" font-family="Times,serif" font-size="14.00">2</text>
</g>
<!-- node11&#45;&gt;node15 -->
<g id="edge13" class="edge">
<title>node11&#45;&gt;node15</title>
<path fill="none" stroke="#2ca02c" stroke-width="2" d="M714.56,-280.05C733.97,-270.7 755.78,-260.2 775.97,-250.48"/>
<polygon fill="#2ca02c" stroke="#2ca02c" stroke-width="2" points="777.42,-253.66 784.91,-246.17 774.38,-247.36 777.42,-253.66"/>
</g>
<!-- node16 -->
<g id="node13" class="node">
<title>node16</title>
<polygon fill="#d0e8f2" stroke="black" points="742,-151 570,-151 570,-93.5 742,-93.5 742,-151"/>
<text xml:space="preserve" text-anchor="middle" x="656" y="-133.7" font-family="Times,serif" font-size="14.00">n MINUS 1</text>
<text xml:space="preserve" text-anchor="middle" x="656" y="-117.2" font-family="Times,serif" font-size="14.00">────────────────</text>
<text xml:space="preserve" text-anchor="middle" x="656" y="-100.7" font-family="Times,serif" font-size="14.00">2</text>
</g>
<!-- node15&#45;&gt;node16 -->
<g id="edge8" class="edge">
<title>node15&#45;&gt;node16</title>
<path fill="none" stroke="#2ca02c" stroke-width="2" d="M787.44,-186.55C768.03,-177.2 746.22,-166.7 726.03,-156.98"/>
<polygon fill="#2ca02c" stroke="#2ca02c" stroke-width="2" points="727.62,-153.86 717.09,-152.67 724.58,-160.16 727.62,-153.86"/>
</g>
<!-- node18 -->
<g id="node14" class="node">
<title>node18</title>
<polygon fill="#d0e8f2" stroke="black" points="932,-151 760,-151 760,-93.5 932,-93.5 932,-151"/>
<text xml:space="preserve" text-anchor="middle" x="846" y="-133.7" font-family="Times,serif" font-size="14.00">n AT MOST 1</text>
<text xml:space="preserve" text-anchor="middle" x="846" y="-117.2" font-family="Times,serif" font-size="14.00">────────────────</text>
<text xml:space="preserve" text-anchor="middle" x="846" y="-100.7" font-family="Times,serif" font-size="14.00">FALSE</text>
</g>
<!-- node15&#45;&gt;node18 -->
<g id="edge9" class="edge">
<title>node15&#45;&gt;node18</title>
<path fill="none" stroke="#2ca02c" stroke-width="2" d="M846,-186.8C846,-179.68 846,-171.88 846,-164.26"/>
<polygon fill="#2ca02c" stroke="#2ca02c" stroke-width="2" points="849.5,-164.37 846,-154.37 842.5,-164.37 849.5,-164.37"/>
</g>
<!-- node19 -->
<g id="node15" class="node">
<title>node19</title>
<polygon fill="#d0e8f2" stroke="black" points="1122,-151 950,-151 950,-93.5 1122,-93.5 1122,-151"/>
<text xml:space="preserve" text-anchor="middle" x="1036" y="-133.7" font-family="Times,serif" font-size="14.00">factorial OF (n MINUS 1)</text>
<text xml:space="preserve" text-anchor="middle" x="1036" y="-117.2" font-family="Times,serif" font-size="14.00">────────────────</text>
<text xml:space="preserve" text-anchor="middle" x="1036" y="-100.7" font-family="Times,serif" font-size="14.00">1</text>
</g>
<!-- node15&#45;&gt;node19 -->
<g id="edge12" class="edge">
<title>node15&#45;&gt;node19</title>
<path fill="none" stroke="#2ca02c" stroke-width="2" d="M904.56,-186.55C923.97,-177.2 945.78,-166.7 965.97,-156.98"/>
<polygon fill="#2ca02c" stroke="#2ca02c" stroke-width="2" points="967.42,-160.16 974.91,-152.67 964.38,-153.86 967.42,-160.16"/>
</g>
<!-- node20 -->
<g id="node16" class="node">
<title>node20</title>
<polygon fill="#d0e8f2" stroke="black" points="1027,-57.5 855,-57.5 855,0 1027,0 1027,-57.5"/>
<text xml:space="preserve" text-anchor="middle" x="941" y="-40.2" font-family="Times,serif" font-size="14.00">n MINUS 1</text>
<text xml:space="preserve" text-anchor="middle" x="941" y="-23.7" font-family="Times,serif" font-size="14.00">────────────────</text>
<text xml:space="preserve" text-anchor="middle" x="941" y="-7.2" font-family="Times,serif" font-size="14.00">1</text>
</g>
<!-- node19&#45;&gt;node20 -->
<g id="edge10" class="edge">
<title>node19&#45;&gt;node20</title>
<path fill="none" stroke="#2ca02c" stroke-width="2" d="M1006.72,-93.05C998.06,-84.71 988.45,-75.45 979.31,-66.65"/>
<polygon fill="#2ca02c" stroke="#2ca02c" stroke-width="2" points="981.83,-64.22 972.2,-59.8 976.97,-69.26 981.83,-64.22"/>
</g>
<!-- node22 -->
<g id="node17" class="node">
<title>node22</title>
<polygon fill="#d0e8f2" stroke="black" points="1217,-57.5 1045,-57.5 1045,0 1217,0 1217,-57.5"/>
<text xml:space="preserve" text-anchor="middle" x="1131" y="-40.2" font-family="Times,serif" font-size="14.00">n AT MOST 1</text>
<text xml:space="preserve" text-anchor="middle" x="1131" y="-23.7" font-family="Times,serif" font-size="14.00">────────────────</text>
<text xml:space="preserve" text-anchor="middle" x="1131" y="-7.2" font-family="Times,serif" font-size="14.00">TRUE</text>
</g>
<!-- node19&#45;&gt;node22 -->
<g id="edge11" class="edge">
<title>node19&#45;&gt;node22</title>
<path fill="none" stroke="#2ca02c" stroke-width="2" d="M1065.28,-93.05C1073.94,-84.71 1083.55,-75.45 1092.69,-66.65"/>
<polygon fill="#2ca02c" stroke="#2ca02c" stroke-width="2" points="1095.03,-69.26 1099.8,-59.8 1090.17,-64.22 1095.03,-69.26"/>
</g>
</g>
</svg>
