<?xml version="1.0" encoding="UTF-8" standalone="no"?>
<!DOCTYPE svg PUBLIC "-//W3C//DTD SVG 1.1//EN"
 "http://www.w3.org/Graphics/SVG/1.1/DTD/svg11.dtd">
<!-- Generated by graphviz version 14.1.0 (20251206.1807)
 -->
<!-- Title: evaluation_trace Pages: 1 -->
<svg width="1574pt" height="599pt"
 viewBox="0.00 0.00 1574.00 599.00" xmlns="http://www.w3.org/2000/svg" xmlns:xlink="http://www.w3.org/1999/xlink">
<g id="graph0" class="graph" transform="scale(1 1) rotate(0) translate(4 595)">
<title>evaluation_trace</title>
<polygon fill="white" stroke="none" points="-4,4 -4,-595 1570.38,-595 1570.38,4 -4,4"/>
<!-- node0 -->
<g id="node1" class="node">
<title>node0</title>
<polygon fill="#d0e8f2" stroke="black" points="979.38,-591 807.38,-591 807.38,-517 979.38,-517 979.38,-591"/>
<text xml:space="preserve" text-anchor="middle" x="893.38" y="-573.7" font-family="Times,serif" font-size="14.00">evaluation OF alice</text>
<text xml:space="preserve" text-anchor="middle" x="893.38" y="-557.2" font-family="Times,serif" font-size="14.00">finalScore</text>
<text xml:space="preserve" text-anchor="middle" x="893.38" y="-540.7" font-family="Times,serif" font-size="14.00">────────────────</text>
<text xml:space="preserve" text-anchor="middle" x="893.38" y="-524.2" font-family="Times,serif" font-size="14.00">40.6</text>
</g>
<!-- node2 -->
<g id="node2" class="node">
<title>node2</title>
<polygon fill="#d0e8f2" stroke="black" points="979.38,-481 807.38,-481 807.38,-407 979.38,-407 979.38,-481"/>
<text xml:space="preserve" text-anchor="middle" x="893.38" y="-463.7" font-family="Times,serif" font-size="14.00">finalScore</text>
<text xml:space="preserve" text-anchor="middle" x="893.38" y="-447.2" font-family="Times,serif" font-size="14.00">sumList OF metrics</text>
<text xml:space="preserve" text-anchor="middle" x="893.38" y="-430.7" font-family="Times,serif" font-size="14.00">────────────────</text>
<text xml:space="preserve" text-anchor="middle" x="893.38" y="-414.2" font-family="Times,serif" font-size="14.00">40.6</text>
</g>
<!-- node0&#45;&gt;node2 -->
<g id="edge19" class="edge">
<title>node0&#45;&gt;node2</title>
<path fill="none" stroke="#2ca02c" stroke-width="2" d="M893.38,-516.74C893.38,-509.52 893.38,-501.84 893.38,-494.27"/>
<polygon fill="#2ca02c" stroke="#2ca02c" stroke-width="2" points="896.88,-494.38 893.38,-484.38 889.88,-494.38 896.88,-494.38"/>
</g>
<!-- node4 -->
<g id="node3" class="node">
<title>node4</title>
<polygon fill="#d0e8f2" stroke="black" points="934,-371 564.75,-371 564.75,-297 934,-297 934,-371"/>
<text xml:space="preserve" text-anchor="middle" x="749.38" y="-353.7" font-family="Times,serif" font-size="14.00">metrics</text>
<text xml:space="preserve" text-anchor="middle" x="749.38" y="-337.2" font-family="Times,serif" font-size="14.00">LIST baseScore, experienceBonus, roleBonus, dependentPenalty</text>
<text xml:space="preserve" text-anchor="middle" x="749.38" y="-320.7" font-family="Times,serif" font-size="14.00">────────────────</text>
<text xml:space="preserve" text-anchor="middle" x="749.38" y="-304.2" font-family="Times,serif" font-size="14.00">LIST 10, 11.6, 25, &#45;6</text>
</g>
<!-- node2&#45;&gt;node4 -->
<g id="edge14" class="edge">
<title>node2&#45;&gt;node4</title>
<path fill="none" stroke="#2ca02c" stroke-width="2" d="M845.02,-406.74C833.15,-397.83 820.31,-388.2 808.01,-378.98"/>
<polygon fill="#2ca02c" stroke="#2ca02c" stroke-width="2" points="810.36,-376.37 800.26,-373.17 806.16,-381.97 810.36,-376.37"/>
</g>
<!-- node25 -->
<g id="node17" class="node">
<title>node25</title>
<polygon fill="#d0e8f2" stroke="black" points="1194.38,-362.75 1022.38,-362.75 1022.38,-305.25 1194.38,-305.25 1194.38,-362.75"/>
<text xml:space="preserve" text-anchor="middle" x="1108.38" y="-345.45" font-family="Times,serif" font-size="14.00">sumList OF zs</text>
<text xml:space="preserve" text-anchor="middle" x="1108.38" y="-328.95" font-family="Times,serif" font-size="14.00">────────────────</text>
<text xml:space="preserve" text-anchor="middle" x="1108.38" y="-312.45" font-family="Times,serif" font-size="14.00">30.6</text>
</g>
<!-- node2&#45;&gt;node25 -->
<g id="edge18" class="edge">
<title>node2&#45;&gt;node25</title>
<path fill="none" stroke="#2ca02c" stroke-width="2" d="M965.86,-406.59C990.07,-394.43 1016.92,-380.94 1040.74,-368.97"/>
<polygon fill="#2ca02c" stroke="#2ca02c" stroke-width="2" points="1042.09,-372.21 1049.46,-364.6 1038.95,-365.96 1042.09,-372.21"/>
</g>
<!-- node5 -->
<g id="node4" class="node">
<title>node5</title>
<polygon fill="#d0e8f2" stroke="black" points="306.62,-261 64.12,-261 64.12,-187 306.62,-187 306.62,-261"/>
<text xml:space="preserve" text-anchor="middle" x="185.38" y="-243.7" font-family="Times,serif" font-size="14.00">baseScore</text>
<text xml:space="preserve" text-anchor="middle" x="185.38" y="-227.2" font-family="Times,serif" font-size="14.00">IF (applicant&#39;s age) GREATER THAN 60</text>
<text xml:space="preserve" text-anchor="middle" x="185.38" y="-210.7" font-family="Times,serif" font-size="14.00">────────────────</text>
<text xml:space="preserve" text-anchor="middle" x="185.38" y="-194.2" font-family="Times,serif" font-size="14.00">10</text>
</g>
<!-- node4&#45;&gt;node5 -->
<g id="edge10" class="edge">
<title>node4&#45;&gt;node5</title>
<path fill="none" stroke="#2ca02c" stroke-width="2" d="M564.73,-299.9C499.47,-287.97 425.6,-274.18 358.38,-261 345.71,-258.52 332.54,-255.88 319.37,-253.2"/>
<polygon fill="#2ca02c" stroke="#2ca02c" stroke-width="2" points="320.22,-249.8 309.73,-251.23 318.82,-256.66 320.22,-249.8"/>
</g>
<!-- node9 -->
<g id="node7" class="node">
<title>node9</title>
<polygon fill="#d0e8f2" stroke="black" points="635.38,-261 367.38,-261 367.38,-187 635.38,-187 635.38,-261"/>
<text xml:space="preserve" text-anchor="middle" x="501.38" y="-243.7" font-family="Times,serif" font-size="14.00">experienceBonus</text>
<text xml:space="preserve" text-anchor="middle" x="501.38" y="-227.2" font-family="Times,serif" font-size="14.00">tierBonus OF ((applicant&#39;s age) DIVIDED 10)</text>
<text xml:space="preserve" text-anchor="middle" x="501.38" y="-210.7" font-family="Times,serif" font-size="14.00">────────────────</text>
<text xml:space="preserve" text-anchor="middle" x="501.38" y="-194.2" font-family="Times,serif" font-size="14.00">11.6</text>
</g>
<!-- node4&#45;&gt;node9 -->
<g id="edge11" class="edge">
<title>node4&#45;&gt;node9</title>
<path fill="none" stroke="#2ca02c" stroke-width="2" d="M665.76,-296.59C643.61,-286.94 619.52,-276.45 596.79,-266.55"/>
<polygon fill="#2ca02c" stroke="#2ca02c" stroke-width="2" points="598.39,-263.43 587.82,-262.65 595.6,-269.85 598.39,-263.43"/>
</g>
<!-- node15 -->
<g id="node11" class="node">
<title>node15</title>
<polygon fill="#d0e8f2" stroke="black" points="845.5,-261 653.25,-261 653.25,-187 845.5,-187 845.5,-261"/>
<text xml:space="preserve" text-anchor="middle" x="749.38" y="-243.7" font-family="Times,serif" font-size="14.00">roleBonus</text>
<text xml:space="preserve" text-anchor="middle" x="749.38" y="-227.2" font-family="Times,serif" font-size="14.00">roleWeight OF (applicant&#39;s role)</text>
<text xml:space="preserve" text-anchor="middle" x="749.38" y="-210.7" font-family="Times,serif" font-size="14.00">────────────────</text>
<text xml:space="preserve" text-anchor="middle" x="749.38" y="-194.2" font-family="Times,serif" font-size="14.00">25</text>
</g>
<!-- node4&#45;&gt;node15 -->
<g id="edge12" class="edge">
<title>node4&#45;&gt;node15</title>
<path fill="none" stroke="#2ca02c" stroke-width="2" d="M749.38,-296.74C749.38,-289.52 749.38,-281.84 749.38,-274.27"/>
<polygon fill="#2ca02c" stroke="#2ca02c" stroke-width="2" points="752.88,-274.38 749.38,-264.38 745.88,-274.38 752.88,-274.38"/>
</g>
<!-- node19 -->
<g id="node13" class="node">
<title>node19</title>
<polygon fill="#d0e8f2" stroke="black" points="1154.88,-261 943.88,-261 943.88,-187 1154.88,-187 1154.88,-261"/>
<text xml:space="preserve" text-anchor="middle" x="1049.38" y="-243.7" font-family="Times,serif" font-size="14.00">dependentPenalty</text>
<text xml:space="preserve" text-anchor="middle" x="1049.38" y="-227.2" font-family="Times,serif" font-size="14.00">penalty OF (applicant&#39;s dependents)</text>
<text xml:space="preserve" text-anchor="middle" x="1049.38" y="-210.7" font-family="Times,serif" font-size="14.00">────────────────</text>
<text xml:space="preserve" text-anchor="middle" x="1049.38" y="-194.2" font-family="Times,serif" font-size="14.00">&#45;6</text>
</g>
<!-- node4&#45;&gt;node19 -->
<g id="edge13" class="edge">
<title>node4&#45;&gt;node19</title>
<path fill="none" stroke="#2ca02c" stroke-width="2" d="M850.52,-296.59C878.06,-286.67 908.06,-275.87 936.21,-265.74"/>
<polygon fill="#2ca02c" stroke="#2ca02c" stroke-width="2" points="937.08,-269.14 945.31,-262.46 934.71,-262.56 937.08,-269.14"/>
</g>
<!-- node6 -->
<g id="node5" class="node">
<title>node6</title>
<polygon fill="#d0e8f2" stroke="black" points="226.75,-151 0,-151 0,-93.5 226.75,-93.5 226.75,-151"/>
<text xml:space="preserve" text-anchor="middle" x="113.38" y="-133.7" font-family="Times,serif" font-size="14.00">(applicant&#39;s age) GREATER THAN 60</text>
<text xml:space="preserve" text-anchor="middle" x="113.38" y="-117.2" font-family="Times,serif" font-size="14.00">────────────────</text>
<text xml:space="preserve" text-anchor="middle" x="113.38" y="-100.7" font-family="Times,serif" font-size="14.00">FALSE</text>
</g>
<!-- node5&#45;&gt;node6 -->
<g id="edge2" class="edge">
<title>node5&#45;&gt;node6</title>
<path fill="none" stroke="#2ca02c" stroke-width="2" d="M159.18,-186.71C153.31,-178.57 147.06,-169.92 141.13,-161.7"/>
<polygon fill="#2ca02c" stroke="#2ca02c" stroke-width="2" points="144.03,-159.74 135.34,-153.68 138.36,-163.84 144.03,-159.74"/>
</g>
<!-- node7 -->
<g id="node6" class="node">
<title>node7</title>
<polygon fill="#d0e8f2" stroke="black" points="199.38,-57.5 27.38,-57.5 27.38,0 199.38,0 199.38,-57.5"/>
<text xml:space="preserve" text-anchor="middle" x="113.38" y="-40.2" font-family="Times,serif" font-size="14.00">applicant&#39;s age</text>
<text xml:space="preserve" text-anchor="middle" x="113.38" y="-23.7" font-family="Times,serif" font-size="14.00">────────────────</text>
<text xml:space="preserve" text-anchor="middle" x="113.38" y="-7.2" font-family="Times,serif" font-size="14.00">58</text>
</g>
<!-- node6&#45;&gt;node7 -->
<g id="edge1" class="edge">
<title>node6&#45;&gt;node7</title>
<path fill="none" stroke="#2ca02c" stroke-width="2" d="M113.38,-93.3C113.38,-86.18 113.38,-78.38 113.38,-70.76"/>
<polygon fill="#2ca02c" stroke="#2ca02c" stroke-width="2" points="116.88,-70.87 113.38,-60.87 109.88,-70.87 116.88,-70.87"/>
</g>
<!-- node10 -->
<g id="node8" class="node">
<title>node10</title>
<polygon fill="#d0e8f2" stroke="black" points="426.25,-151 244.5,-151 244.5,-93.5 426.25,-93.5 426.25,-151"/>
<text xml:space="preserve" text-anchor="middle" x="335.38" y="-133.7" font-family="Times,serif" font-size="14.00">(applicant&#39;s age) DIVIDED 10</text>
<text xml:space="preserve" text-anchor="middle" x="335.38" y="-117.2" font-family="Times,serif" font-size="14.00">────────────────</text>
<text xml:space="preserve" text-anchor="middle" x="335.38" y="-100.7" font-family="Times,serif" font-size="14.00">5.8</text>
</g>
<!-- node9&#45;&gt;node10 -->
<g id="edge4" class="edge">
<title>node9&#45;&gt;node10</title>
<path fill="none" stroke="#2ca02c" stroke-width="2" d="M440.98,-186.71C425.38,-177.34 408.64,-167.28 393.19,-157.99"/>
<polygon fill="#2ca02c" stroke="#2ca02c" stroke-width="2" points="395.17,-155.09 384.79,-152.94 391.56,-161.09 395.17,-155.09"/>
</g>
<!-- node14 -->
<g id="node10" class="node">
<title>node14</title>
<polygon fill="#d0e8f2" stroke="black" points="616.38,-151 444.38,-151 444.38,-93.5 616.38,-93.5 616.38,-151"/>
<text xml:space="preserve" text-anchor="middle" x="530.38" y="-133.7" font-family="Times,serif" font-size="14.00">tier AT MOST 3</text>
<text xml:space="preserve" text-anchor="middle" x="530.38" y="-117.2" font-family="Times,serif" font-size="14.00">────────────────</text>
<text xml:space="preserve" text-anchor="middle" x="530.38" y="-100.7" font-family="Times,serif" font-size="14.00">FALSE</text>
</g>
<!-- node9&#45;&gt;node14 -->
<g id="edge5" class="edge">
<title>node9&#45;&gt;node14</title>
<path fill="none" stroke="#2ca02c" stroke-width="2" d="M511.93,-186.71C514.11,-179.21 516.41,-171.27 518.63,-163.65"/>
<polygon fill="#2ca02c" stroke="#2ca02c" stroke-width="2" points="521.97,-164.71 521.4,-154.13 515.24,-162.76 521.97,-164.71"/>
</g>
<!-- node11 -->
<g id="node9" class="node">
<title>node11</title>
<polygon fill="#d0e8f2" stroke="black" points="421.38,-57.5 249.38,-57.5 249.38,0 421.38,0 421.38,-57.5"/>
<text xml:space="preserve" text-anchor="middle" x="335.38" y="-40.2" font-family="Times,serif" font-size="14.00">applicant&#39;s age</text>
<text xml:space="preserve" text-anchor="middle" x="335.38" y="-23.7" font-family="Times,serif" font-size="14.00">────────────────</text>
<text xml:space="preserve" text-anchor="middle" x="335.38" y="-7.2" font-family="Times,serif" font-size="14.00">58</text>
</g>
<!-- node10&#45;&gt;node11 -->
<g id="edge3" class="edge">
<title>node10&#45;&gt;node11</title>
<path fill="none" stroke="#2ca02c" stroke-width="2" d="M335.38,-93.3C335.38,-86.18 335.38,-78.38 335.38,-70.76"/>
<polygon fill="#2ca02c" stroke="#2ca02c" stroke-width="2" points="338.88,-70.87 335.38,-60.87 331.88,-70.87 338.88,-70.87"/>
</g>
<!-- node16 -->
<g id="node12" class="node">
<title>node16</title>
<polygon fill="#d0e8f2" stroke="black" points="806.38,-151 634.38,-151 634.38,-93.5 806.38,-93.5 806.38,-151"/>
<text xml:space="preserve" text-anchor="middle" x="720.38" y="-133.7" font-family="Times,serif" font-size="14.00">applicant&#39;s role</text>
<text xml:space="preserve" text-anchor="middle" x="720.38" y="-117.2" font-family="Times,serif" font-size="14.00">────────────────</text>
<text xml:space="preserve" text-anchor="middle" x="720.38" y="-100.7" font-family="Times,serif" font-size="14.00">Manager</text>
</g>
<!-- node15&#45;&gt;node16 -->
<g id="edge6" class="edge">
<title>node15&#45;&gt;node16</title>
<path fill="none" stroke="#2ca02c" stroke-width="2" d="M738.82,-186.71C736.64,-179.21 734.34,-171.27 732.12,-163.65"/>
<polygon fill="#2ca02c" stroke="#2ca02c" stroke-width="2" points="735.51,-162.76 729.35,-154.13 728.78,-164.71 735.51,-162.76"/>
</g>
<!-- node20 -->
<g id="node14" class="node">
<title>node20</title>
<polygon fill="#d0e8f2" stroke="black" points="996.38,-151 824.38,-151 824.38,-93.5 996.38,-93.5 996.38,-151"/>
<text xml:space="preserve" text-anchor="middle" x="910.38" y="-133.7" font-family="Times,serif" font-size="14.00">applicant&#39;s dependents</text>
<text xml:space="preserve" text-anchor="middle" x="910.38" y="-117.2" font-family="Times,serif" font-size="14.00">────────────────</text>
<text xml:space="preserve" text-anchor="middle" x="910.38" y="-100.7" font-family="Times,serif" font-size="14.00">2</text>
</g>
<!-- node19&#45;&gt;node20 -->
<g id="edge7" class="edge">
<title>node19&#45;&gt;node20</title>
<path fill="none" stroke="#2ca02c" stroke-width="2" d="M998.8,-186.71C986.06,-177.57 972.41,-167.77 959.74,-158.67"/>
<polygon fill="#2ca02c" stroke="#2ca02c" stroke-width="2" points="961.99,-155.98 951.82,-152.99 957.9,-161.67 961.99,-155.98"/>
</g>
<!-- node23 -->
<g id="node15" class="node">
<title>node23</title>
<polygon fill="#d0e8f2" stroke="black" points="1186.38,-151 1014.38,-151 1014.38,-93.5 1186.38,-93.5 1186.38,-151"/>
<text xml:space="preserve" text-anchor="middle" x="1100.38" y="-133.7" font-family="Times,serif" font-size="14.00">count AT MOST 0</text>
<text xml:space="preserve" text-anchor="middle" x="1100.38" y="-117.2" font-family="Times,serif" font-size="14.00">────────────────</text>
<text xml:space="preserve" text-anchor="middle" x="1100.38" y="-100.7" font-family="Times,serif" font-size="14.00">FALSE</text>
</g>
<!-- node19&#45;&gt;node23 -->
<g id="edge8" class="edge">
<title>node19&#45;&gt;node23</title>
<path fill="none" stroke="#2ca02c" stroke-width="2" d="M1067.93,-186.71C1071.9,-178.94 1076.12,-170.69 1080.15,-162.81"/>
<polygon fill="#2ca02c" stroke="#2ca02c" stroke-width="2" points="1083.26,-164.42 1084.69,-153.92 1077.02,-161.23 1083.26,-164.42"/>
</g>
<!-- node24 -->
<g id="node16" class="node">
<title>node24</title>
<polygon fill="#d0e8f2" stroke="black" points="1376.38,-151 1204.38,-151 1204.38,-93.5 1376.38,-93.5 1376.38,-151"/>
<text xml:space="preserve" text-anchor="middle" x="1290.38" y="-133.7" font-family="Times,serif" font-size="14.00">count TIMES 3</text>
<text xml:space="preserve" text-anchor="middle" x="1290.38" y="-117.2" font-family="Times,serif" font-size="14.00">────────────────</text>
<text xml:space="preserve" text-anchor="middle" x="1290.38" y="-100.7" font-family="Times,serif" font-size="14.00">6</text>
</g>
<!-- node19&#45;&gt;node24 -->
<g id="edge9" class="edge">
<title>node19&#45;&gt;node24</title>
<path fill="none" stroke="#2ca02c" stroke-width="2" d="M1137.4,-186.56C1161.22,-176.71 1186.87,-166.09 1210.23,-156.42"/>
<polygon fill="#2ca02c" stroke="#2ca02c" stroke-width="2" points="1211.51,-159.68 1219.41,-152.62 1208.83,-153.21 1211.51,-159.68"/>
</g>
<!-- node27 -->
<g id="node18" class="node">
<title>node27</title>
<polygon fill="#d0e8f2" stroke="black" points="1470.38,-252.75 1298.38,-252.75 1298.38,-195.25 1470.38,-195.25 1470.38,-252.75"/>
<text xml:space="preserve" text-anchor="middle" x="1384.38" y="-235.45" font-family="Times,serif" font-size="14.00">sumList OF zs</text>
<text xml:space="preserve" text-anchor="middle" x="1384.38" y="-218.95" font-family="Times,serif" font-size="14.00">────────────────</text>
<text xml:space="preserve" text-anchor="middle" x="1384.38" y="-202.45" font-family="Times,serif" font-size="14.00">19</text>
</g>
<!-- node25&#45;&gt;node27 -->
<g id="edge17" class="edge">
<title>node25&#45;&gt;node27</title>
<path fill="none" stroke="#2ca02c" stroke-width="2" d="M1180.53,-304.77C1217.44,-290.32 1262.56,-272.67 1300.96,-257.64"/>
<polygon fill="#2ca02c" stroke="#2ca02c" stroke-width="2" points="1301.78,-261.08 1309.82,-254.17 1299.23,-254.56 1301.78,-261.08"/>
</g>
<!-- node29 -->
<g id="node19" class="node">
<title>node29</title>
<polygon fill="#d0e8f2" stroke="black" points="1566.38,-151 1394.38,-151 1394.38,-93.5 1566.38,-93.5 1566.38,-151"/>
<text xml:space="preserve" text-anchor="middle" x="1480.38" y="-133.7" font-family="Times,serif" font-size="14.00">sumList OF zs</text>
<text xml:space="preserve" text-anchor="middle" x="1480.38" y="-117.2" font-family="Times,serif" font-size="14.00">────────────────</text>
<text xml:space="preserve" text-anchor="middle" x="1480.38" y="-100.7" font-family="Times,serif" font-size="14.00">&#45;6</text>
</g>
<!-- node27&#45;&gt;node29 -->
<g id="edge16" class="edge">
<title>node27&#45;&gt;node29</title>
<path fill="none" stroke="#2ca02c" stroke-width="2" d="M1411.37,-194.95C1421.6,-184.32 1433.41,-172.05 1444.33,-160.7"/>
<polygon fill="#2ca02c" stroke="#2ca02c" stroke-width="2" points="1446.74,-163.25 1451.15,-153.62 1441.69,-158.4 1446.74,-163.25"/>
</g>
<!-- node31 -->
<g id="node20" class="node">
<title>node31</title>
<polygon fill="#d0e8f2" stroke="black" points="1566.38,-57.5 1394.38,-57.5 1394.38,0 1566.38,0 1566.38,-57.5"/>
<text xml:space="preserve" text-anchor="middle" x="1480.38" y="-40.2" font-family="Times,serif" font-size="14.00">sumList OF zs</text>
<text xml:space="preserve" text-anchor="middle" x="1480.38" y="-23.7" font-family="Times,serif" font-size="14.00">────────────────</text>
<text xml:space="preserve" text-anchor="middle" x="1480.38" y="-7.2" font-family="Times,serif" font-size="14.00">0</text>
</g>
<!-- node29&#45;&gt;node31 -->
<g id="edge15" class="edge">
<title>node29&#45;&gt;node31</title>
<path fill="none" stroke="#2ca02c" stroke-width="2" d="M1480.38,-93.3C1480.38,-86.18 1480.38,-78.38 1480.38,-70.76"/>
<polygon fill="#2ca02c" stroke="#2ca02c" stroke-width="2" points="1483.88,-70.87 1480.38,-60.87 1476.88,-70.87 1483.88,-70.87"/>
</g>
</g>
</svg>
