<?xml version="1.0" encoding="UTF-8" standalone="no"?>
<!DOCTYPE svg PUBLIC "-//W3C//DTD SVG 1.1//EN"
 "http://www.w3.org/Graphics/SVG/1.1/DTD/svg11.dtd">
<!-- Generated by graphviz version 14.1.0 (20251206.1807)
 -->
<!-- Title: evaluation_trace Pages: 1 -->
<svg width="370pt" height="159pt"
 viewBox="0.00 0.00 370.00 159.00" xmlns="http://www.w3.org/2000/svg" xmlns:xlink="http://www.w3.org/1999/xlink">
<g id="graph0" class="graph" transform="scale(1 1) rotate(0) translate(4 155)">
<title>evaluation_trace</title>
<polygon fill="white" stroke="none" points="-4,4 -4,-155 366,-155 366,4 -4,4"/>
<!-- node0 -->
<g id="node1" class="node">
<title>node0</title>
<polygon fill="#d0e8f2" stroke="black" points="267,-151 95,-151 95,-93.5 267,-93.5 267,-151"/>
<text xml:space="preserve" text-anchor="middle" x="181" y="-133.7" font-family="Times,serif" font-size="14.00">describe OF (Just OF &#45;5)</text>
<text xml:space="preserve" text-anchor="middle" x="181" y="-117.2" font-family="Times,serif" font-size="14.00">────────────────</text>
<text xml:space="preserve" text-anchor="middle" x="181" y="-100.7" font-family="Times,serif" font-size="14.00">&quot;negative&quot;</text>
</g>
<!-- node1 -->
<g id="node2" class="node">
<title>node1</title>
<polygon fill="#d0e8f2" stroke="black" points="172,-57.5 0,-57.5 0,0 172,0 172,-57.5"/>
<text xml:space="preserve" text-anchor="middle" x="86" y="-40.2" font-family="Times,serif" font-size="14.00">Just OF &#45;5</text>
<text xml:space="preserve" text-anchor="middle" x="86" y="-23.7" font-family="Times,serif" font-size="14.00">────────────────</text>
<text xml:space="preserve" text-anchor="middle" x="86" y="-7.2" font-family="Times,serif" font-size="14.00">Just OF &#45;5</text>
</g>
<!-- node0&#45;&gt;node1 -->
<g id="edge1" class="edge">
<title>node0&#45;&gt;node1</title>
<path fill="none" stroke="#2ca02c" stroke-width="2" d="M151.72,-93.05C143.06,-84.71 133.45,-75.45 124.31,-66.65"/>
<polygon fill="#2ca02c" stroke="#2ca02c" stroke-width="2" points="126.83,-64.22 117.2,-59.8 121.97,-69.26 126.83,-64.22"/>
</g>
<!-- node3 -->
<g id="node3" class="node">
<title>node3</title>
<polygon fill="#d0e8f2" stroke="black" points="362,-57.5 190,-57.5 190,0 362,0 362,-57.5"/>
<text xml:space="preserve" text-anchor="middle" x="276" y="-40.2" font-family="Times,serif" font-size="14.00">v AT LEAST 0</text>
<text xml:space="preserve" text-anchor="middle" x="276" y="-23.7" font-family="Times,serif" font-size="14.00">────────────────</text>
<text xml:space="preserve" text-anchor="middle" x="276" y="-7.2" font-family="Times,serif" font-size="14.00">FALSE</text>
</g>
<!-- node0&#45;&gt;node3 -->
<g id="edge2" class="edge">
<title>node0&#45;&gt;node3</title>
<path fill="none" stroke="#2ca02c" stroke-width="2" d="M210.28,-93.05C218.94,-84.71 228.55,-75.45 237.69,-66.65"/>
<polygon fill="#2ca02c" stroke="#2ca02c" stroke-width="2" points="240.03,-69.26 244.8,-59.8 235.17,-64.22 240.03,-69.26"/>
</g>
</g>
</svg>
