<?xml version="1.0" encoding="UTF-8"?>
<svg width="856" height="850" viewBox="0 0 856 850" xmlns="http://www.w3.org/2000/svg">
<path fill="#c69c6e" fill-rule="evenodd" stroke="none" d="M 303 337 L 302.073975 578.016357 L 589.735229 578.016357 L 589.735229 779.509277 L 788.358398 779.509277 L 788.358398 578.016357 L 788.358398 423.288208 L 788.249756 71.976318 L 490 72 Z M 596.584106 423.288208 L 449 425 L 594.586548 217.314331 Z"/>
<path fill="#a57d52" fill-rule="evenodd" stroke="none" d="M 305.816406 72.077148 L 306 289 L 455.557373 72.947266 Z"/>
<path fill="#8b623a" fill-rule="evenodd" stroke="none" d="M 571.0979 396.946777 L 572.39624 297.190918 L 503 396 Z"/>
<path fill="#603814" fill-rule="evenodd" stroke="none" d="M 65.210083 70.344543 L 65.210083 779.509277 L 563.333984 778.846313 L 563.333984 603.333862 L 277.531494 603.996826 L 277.531494 70.344543 Z"/>
<path fill="#5f3713" fill-rule="evenodd" stroke="none" d="M 854.707581 850 L -0 850 L -0 1 L 854.707581 1 L 854.707581 850 Z M 817.416626 812.95813 L 37.290909 812.95813 L 37.290909 38.04187 L 817.416626 38.04187 L 817.416626 812.95813 Z"/>
</svg>

