<?xml version="1.0" encoding="UTF-8" standalone="no"?>
<!DOCTYPE svg PUBLIC "-//W3C//DTD SVG 1.1//EN"
 "http://www.w3.org/Graphics/SVG/1.1/DTD/svg11.dtd">
<!-- Generated by graphviz version 14.1.0 (20251206.1807)
 -->
<!-- Pages: 1 -->
<svg width="403pt" height="352pt"
 viewBox="0.00 0.00 403.00 352.00" xmlns="http://www.w3.org/2000/svg" xmlns:xlink="http://www.w3.org/1999/xlink">
<g id="graph0" class="graph" transform="scale(1 1) rotate(0) translate(4 348.19)">
<polygon fill="white" stroke="none" points="-4,4 -4,-348.19 398.54,-348.19 398.54,4 -4,4"/>
<text xml:space="preserve" text-anchor="middle" x="197.27" y="-326.89" font-family="Helvetica,sans-Serif" font-size="14.00">aContract</text>
<!-- 0 -->
<g id="node1" class="node">
<title>0</title>
<ellipse fill="#e8f4fd" stroke="black" cx="307" cy="-303.19" rx="27" ry="18"/>
<text xml:space="preserve" text-anchor="middle" x="307" y="-298.74" font-family="Helvetica,sans-Serif" font-size="11.00">initial</text>
</g>
<!-- 1 -->
<g id="node2" class="node">
<title>1</title>
<ellipse fill="#ffffff" stroke="black" cx="253" cy="-219.94" rx="63.74" ry="18"/>
<text xml:space="preserve" text-anchor="middle" x="253" y="-215.49" font-family="Helvetica,sans-Serif" font-size="11.00">B must payment ...</text>
</g>
<!-- 0&#45;&gt;1 -->
<g id="edge1" class="edge">
<title>0&#45;&gt;1</title>
<path fill="none" stroke="#28a745" d="M284.91,-292.42C274.55,-286.63 263.11,-278.25 256.75,-267.19 253.72,-261.91 252.15,-255.72 251.44,-249.62"/>
<polygon fill="#28a745" stroke="#28a745" points="254.94,-249.61 251.05,-239.75 247.95,-249.88 254.94,-249.61"/>
<text xml:space="preserve" text-anchor="middle" x="301.38" y="-257.69" font-family="Helvetica,sans-Serif" font-size="10.00">S MUST delivery [3]</text>
</g>
<!-- 5 -->
<g id="node6" class="node">
<title>5</title>
<ellipse fill="#f8d7da" stroke="black" cx="336" cy="-35.72" rx="30.37" ry="30.37"/>
<ellipse fill="none" stroke="black" cx="336" cy="-35.72" rx="34.37" ry="34.37"/>
<text xml:space="preserve" text-anchor="middle" x="336" y="-31.27" font-family="Helvetica,sans-Serif" font-size="11.00">Breach</text>
</g>
<!-- 0&#45;&gt;5 -->
<g id="edge2" class="edge">
<title>0&#45;&gt;5</title>
<path fill="none" stroke="#dc3545" stroke-dasharray="5,2" d="M326.2,-290.26C333.86,-284.36 341.85,-276.5 346,-267.19 373.04,-206.58 360.89,-127.87 348.95,-79.88"/>
<polygon fill="#dc3545" stroke="#dc3545" points="352.39,-79.22 346.48,-70.43 345.62,-80.98 352.39,-79.22"/>
<text xml:space="preserve" text-anchor="middle" x="378.41" y="-174.44" font-family="Helvetica,sans-Serif" font-size="10.00">timeout</text>
</g>
<!-- 2 -->
<g id="node3" class="node">
<title>2</title>
<ellipse fill="#ffffff" stroke="black" cx="27" cy="-136.69" rx="27" ry="18"/>
<text xml:space="preserve" text-anchor="middle" x="27" y="-132.24" font-family="Helvetica,sans-Serif" font-size="11.00">next</text>
</g>
<!-- 1&#45;&gt;2 -->
<g id="edge3" class="edge">
<title>1&#45;&gt;2</title>
<path fill="none" stroke="#28a745" d="M191.09,-215.25C137.99,-210.91 66.67,-201.87 44.75,-183.94 38.98,-179.23 35.09,-172.41 32.45,-165.44"/>
<polygon fill="#28a745" stroke="#28a745" points="35.89,-164.72 29.7,-156.13 29.18,-166.71 35.89,-164.72"/>
<text xml:space="preserve" text-anchor="middle" x="146.38" y="-174.44" font-family="Helvetica,sans-Serif" font-size="10.00">B MUST payment ... [3] IF price AT LEAST 20</text>
</g>
<!-- 3 -->
<g id="node4" class="node">
<title>3</title>
<ellipse fill="#ffffff" stroke="black" cx="252" cy="-136.69" rx="79.53" ry="18"/>
<text xml:space="preserve" text-anchor="middle" x="252" y="-132.24" font-family="Helvetica,sans-Serif" font-size="11.00">B must payment OF fine</text>
</g>
<!-- 1&#45;&gt;3 -->
<g id="edge4" class="edge">
<title>1&#45;&gt;3</title>
<path fill="none" stroke="#dc3545" stroke-dasharray="5,2" d="M252.79,-201.71C252.66,-191.44 252.5,-178.14 252.35,-166.33"/>
<polygon fill="#dc3545" stroke="#dc3545" points="255.86,-166.65 252.23,-156.69 248.86,-166.73 255.86,-166.65"/>
<text xml:space="preserve" text-anchor="middle" x="268.68" y="-174.44" font-family="Helvetica,sans-Serif" font-size="10.00">timeout</text>
</g>
<!-- 4 -->
<g id="node5" class="node">
<title>4</title>
<ellipse fill="#d4edda" stroke="black" cx="162" cy="-35.72" rx="31.72" ry="31.72"/>
<ellipse fill="none" stroke="black" cx="162" cy="-35.72" rx="35.72" ry="35.72"/>
<text xml:space="preserve" text-anchor="middle" x="162" y="-31.27" font-family="Helvetica,sans-Serif" font-size="11.00">Fulfilled</text>
</g>
<!-- 3&#45;&gt;4 -->
<g id="edge5" class="edge">
<title>3&#45;&gt;4</title>
<path fill="none" stroke="#28a745" d="M191.07,-124.74C178.39,-119.55 166.53,-111.92 158.75,-100.69 154.9,-95.13 153.06,-88.59 152.5,-81.87"/>
<polygon fill="#28a745" stroke="#28a745" points="155.99,-82.05 152.61,-72.01 148.99,-81.97 155.99,-82.05"/>
<text xml:space="preserve" text-anchor="middle" x="222.88" y="-91.19" font-family="Helvetica,sans-Serif" font-size="10.00">B MUST payment OF fine [3]</text>
</g>
<!-- 3&#45;&gt;5 -->
<g id="edge6" class="edge">
<title>3&#45;&gt;5</title>
<path fill="none" stroke="#dc3545" stroke-dasharray="5,2" d="M272.26,-119.06C278.55,-113.5 285.32,-107.09 291,-100.69 298.09,-92.71 305.06,-83.61 311.33,-74.81"/>
<polygon fill="#dc3545" stroke="#dc3545" points="314.13,-76.92 316.95,-66.71 308.38,-72.93 314.13,-76.92"/>
<text xml:space="preserve" text-anchor="middle" x="315.35" y="-91.19" font-family="Helvetica,sans-Serif" font-size="10.00">timeout</text>
</g>
</g>
</svg>
