<?xml version="1.0" encoding="UTF-8" standalone="no"?>
<!DOCTYPE svg PUBLIC "-//W3C//DTD SVG 1.1//EN"
 "http://www.w3.org/Graphics/SVG/1.1/DTD/svg11.dtd">
<!-- Generated by graphviz version 14.1.0 (20251206.1807)
 -->
<!-- Pages: 1 -->
<svg width="198pt" height="183pt"
 viewBox="0.00 0.00 198.00 183.00" xmlns="http://www.w3.org/2000/svg" xmlns:xlink="http://www.w3.org/1999/xlink">
<g id="graph0" class="graph" transform="scale(1 1) rotate(0) translate(4 178.99)">
<polygon fill="white" stroke="none" points="-4,4 -4,-178.99 194.37,-178.99 194.37,4 -4,4"/>
<text xml:space="preserve" text-anchor="middle" x="95.18" y="-157.69" font-family="Helvetica,sans-Serif" font-size="14.00">care in sickness and health</text>
<!-- 0 -->
<g id="node1" class="node">
<title>0</title>
<ellipse fill="#e8f4fd" stroke="black" cx="91" cy="-133.99" rx="27" ry="18"/>
<text xml:space="preserve" text-anchor="middle" x="91" y="-129.54" font-family="Helvetica,sans-Serif" font-size="11.00">initial</text>
</g>
<!-- 1 -->
<g id="node2" class="node">
<title>1</title>
<ellipse fill="#ffffff" stroke="black" cx="27" cy="-34.37" rx="27" ry="18"/>
<text xml:space="preserve" text-anchor="middle" x="27" y="-29.92" font-family="Helvetica,sans-Serif" font-size="11.00">next</text>
</g>
<!-- 0&#45;&gt;1 -->
<g id="edge1" class="edge">
<title>0&#45;&gt;1</title>
<path fill="none" stroke="#28a745" d="M66.43,-126C52.65,-120.69 36.6,-111.89 28.25,-97.99 22.18,-87.89 21.03,-75.12 21.71,-63.75"/>
<polygon fill="#28a745" stroke="#28a745" points="25.16,-64.41 22.8,-54.08 18.2,-63.63 25.16,-64.41"/>
<text xml:space="preserve" text-anchor="middle" x="81.12" y="-88.49" font-family="Helvetica,sans-Serif" font-size="10.00">Spouse1 MUST care for</text>
</g>
<!-- 2 -->
<g id="node3" class="node">
<title>2</title>
<ellipse fill="#f8d7da" stroke="black" cx="156" cy="-34.37" rx="30.37" ry="30.37"/>
<ellipse fill="none" stroke="black" cx="156" cy="-34.37" rx="34.37" ry="34.37"/>
<text xml:space="preserve" text-anchor="middle" x="156" y="-29.92" font-family="Helvetica,sans-Serif" font-size="11.00">Breach</text>
</g>
<!-- 0&#45;&gt;2 -->
<g id="edge2" class="edge">
<title>0&#45;&gt;2</title>
<path fill="none" stroke="#dc3545" stroke-dasharray="5,2" d="M110.19,-120.91C118.47,-114.88 127.69,-106.96 134,-97.99 138.09,-92.17 141.48,-85.52 144.28,-78.78"/>
<polygon fill="#dc3545" stroke="#dc3545" points="147.48,-80.22 147.68,-69.63 140.92,-77.79 147.48,-80.22"/>
<text xml:space="preserve" text-anchor="middle" x="156.57" y="-88.49" font-family="Helvetica,sans-Serif" font-size="10.00">timeout</text>
</g>
</g>
</svg>
