<?xml version="1.0" encoding="UTF-8" standalone="no"?>
<!DOCTYPE svg PUBLIC "-//W3C//DTD SVG 1.1//EN"
 "http://www.w3.org/Graphics/SVG/1.1/DTD/svg11.dtd">
<!-- Generated by graphviz version 14.1.0 (20251206.1807)
 -->
<!-- Pages: 1 -->
<svg width="1020pt" height="291pt"
 viewBox="0.00 0.00 1020.00 291.00" xmlns="http://www.w3.org/2000/svg" xmlns:xlink="http://www.w3.org/1999/xlink">
<g id="graph0" class="graph" transform="scale(1 1) rotate(0) translate(4 287.44)">
<polygon fill="white" stroke="none" points="-4,4 -4,-287.44 1016.17,-287.44 1016.17,4 -4,4"/>
<text xml:space="preserve" text-anchor="middle" x="506.08" y="-266.14" font-family="Helvetica,sans-Serif" font-size="14.00">Equity Financing Conversion</text>
<!-- 0 -->
<g id="node1" class="node">
<title>0</title>
<ellipse fill="#e8f4fd" stroke="black" cx="583.63" cy="-242.44" rx="27" ry="18"/>
<text xml:space="preserve" text-anchor="middle" x="583.63" y="-237.99" font-family="Helvetica,sans-Serif" font-size="11.00">initial</text>
</g>
<!-- 1 -->
<g id="node2" class="node">
<title>1</title>
<ellipse fill="#ffffff" stroke="black" cx="193.63" cy="-136.69" rx="193.63" ry="18"/>
<text xml:space="preserve" text-anchor="middle" x="193.63" y="-132.24" font-family="Helvetica,sans-Serif" font-size="11.00">ActorCompany OF startup must Equity Financing Transaction ...</text>
</g>
<!-- 0&#45;&gt;1 -->
<g id="edge1" class="edge">
<title>0&#45;&gt;1</title>
<path fill="none" stroke="#28a745" d="M556.47,-241.05C472.17,-239.56 219.18,-232.91 194.63,-206.44 184.8,-195.84 184.05,-179.89 185.98,-166.02"/>
<polygon fill="#28a745" stroke="#28a745" points="189.36,-166.98 187.81,-156.5 182.49,-165.66 189.36,-166.98"/>
<text xml:space="preserve" text-anchor="middle" x="577.13" y="-196.94" font-family="Helvetica,sans-Serif" font-size="10.00">ActorCompany OF startup MUST Convert SAFE ... IF issue EQUALS (`Cap Table Entry` OF (`SAFE investment`&#39;s Holder), (Security WITH Instrument IS &quot;Preference Shares&quot;</text>
<text xml:space="preserve" text-anchor="middle" x="577.13" y="-185.69" font-family="Helvetica,sans-Serif" font-size="10.00"> &#160;&#160;&#160;&#160;&#160;&#160;&#160;&#160;&#160;&#160;&#160;&#160;&#160;&#160;&#160;&#160;&#160;&#160;&#160;&#160;&#160;&#160;&#160;&#160;&#160;&#160;&#160;&#160;&#160;&#160;&#160;&#160;&#160;&#160;&#160;&#160;&#160;&#160;&#160;&#160;&#160;&#160;&#160;&#160;&#160;&#160;&#160;&#160;&#160;&#160;&#160;&#160;&#160;&#160;&#160;&#160;&#160;&#160;&#160;&#160;&#160;&#160;&#160;&#160;&#160;&#160;&#160;&#160;&#160;&#160;&#160;&#160;&#160;&#160;&#160;&#160;&#160;&#160;&#160;Name IS &quot;Class A (converted from SAFE)&quot;</text>
<text xml:space="preserve" text-anchor="middle" x="577.13" y="-174.44" font-family="Helvetica,sans-Serif" font-size="10.00"> &#160;&#160;&#160;&#160;&#160;&#160;&#160;&#160;&#160;&#160;&#160;&#160;&#160;&#160;&#160;&#160;&#160;&#160;&#160;&#160;&#160;&#160;&#160;&#160;&#160;&#160;&#160;&#160;&#160;&#160;&#160;&#160;&#160;&#160;&#160;&#160;&#160;&#160;&#160;&#160;&#160;&#160;&#160;&#160;&#160;&#160;&#160;&#160;&#160;&#160;&#160;&#160;&#160;&#160;&#160;&#160;&#160;&#160;&#160;&#160;&#160;&#160;&#160;&#160;&#160;&#160;&#160;&#160;&#160;&#160;&#160;&#160;&#160;&#160;&#160;&#160;&#160;&#160;&#160;Quantity IS Shares OF numShares, `SAFE Purchase Amount`))</text>
</g>
<!-- 3 -->
<g id="node4" class="node">
<title>3</title>
<ellipse fill="#f8d7da" stroke="black" cx="949.63" cy="-35.72" rx="30.37" ry="30.37"/>
<ellipse fill="none" stroke="black" cx="949.63" cy="-35.72" rx="34.37" ry="34.37"/>
<text xml:space="preserve" text-anchor="middle" x="949.63" y="-31.27" font-family="Helvetica,sans-Serif" font-size="11.00">Breach</text>
</g>
<!-- 0&#45;&gt;3 -->
<g id="edge2" class="edge">
<title>0&#45;&gt;3</title>
<path fill="none" stroke="#dc3545" stroke-dasharray="5,2" d="M610.77,-240.98C693.16,-239.29 936.2,-232.15 959.63,-206.44 990.66,-172.39 980.13,-116.76 967.19,-78.53"/>
<polygon fill="#dc3545" stroke="#dc3545" points="970.51,-77.41 963.84,-69.18 963.92,-79.78 970.51,-77.41"/>
<text xml:space="preserve" text-anchor="middle" x="996.04" y="-132.82" font-family="Helvetica,sans-Serif" font-size="10.00">timeout</text>
</g>
<!-- 2 -->
<g id="node3" class="node">
<title>2</title>
<ellipse fill="#d4edda" stroke="black" cx="158.63" cy="-35.72" rx="31.72" ry="31.72"/>
<ellipse fill="none" stroke="black" cx="158.63" cy="-35.72" rx="35.72" ry="35.72"/>
<text xml:space="preserve" text-anchor="middle" x="158.63" y="-31.27" font-family="Helvetica,sans-Serif" font-size="11.00">Fulfilled</text>
</g>
<!-- 1&#45;&gt;2 -->
<g id="edge3" class="edge">
<title>1&#45;&gt;2</title>
<path fill="none" stroke="#28a745" d="M172.08,-118.39C167.17,-113.26 162.6,-107.24 159.88,-100.69 157.54,-95.05 156.15,-88.88 155.4,-82.67"/>
<polygon fill="#28a745" stroke="#28a745" points="158.92,-82.82 154.79,-73.06 151.93,-83.26 158.92,-82.82"/>
<text xml:space="preserve" text-anchor="middle" x="532.26" y="-91.19" font-family="Helvetica,sans-Serif" font-size="10.00">ActorCompany OF startup MUST Equity Financing Transaction ... IF all OF (GIVEN eft IS eft164 YIELD ((eft&#39;s security)&#39;s Instrument) EQUALS &quot;Preference Shares&quot;), efts</text>
</g>
<!-- 1&#45;&gt;3 -->
<g id="edge4" class="edge">
<title>1&#45;&gt;3</title>
<path fill="none" stroke="#dc3545" stroke-dasharray="5,2" d="M386.36,-134.85C581.36,-132.62 860.28,-125.12 904.63,-100.69 914.71,-95.14 923.05,-86.25 929.69,-76.85"/>
<polygon fill="#dc3545" stroke="#dc3545" points="932.5,-78.95 934.96,-68.65 926.61,-75.17 932.5,-78.95"/>
<text xml:space="preserve" text-anchor="middle" x="934.16" y="-91.19" font-family="Helvetica,sans-Serif" font-size="10.00">timeout</text>
</g>
</g>
</svg>
