<?xml version="1.0" encoding="UTF-8" standalone="no"?>
<!DOCTYPE svg PUBLIC "-//W3C//DTD SVG 1.1//EN"
 "http://www.w3.org/Graphics/SVG/1.1/DTD/svg11.dtd">
<!-- Generated by graphviz version 14.1.0 (20251206.1807)
 -->
<!-- Pages: 1 -->
<svg width="224pt" height="183pt"
 viewBox="0.00 0.00 224.00 183.00" xmlns="http://www.w3.org/2000/svg" xmlns:xlink="http://www.w3.org/1999/xlink">
<g id="graph0" class="graph" transform="scale(1 1) rotate(0) translate(4 178.99)">
<polygon fill="white" stroke="none" points="-4,4 -4,-178.99 220.37,-178.99 220.37,4 -4,4"/>
<text xml:space="preserve" text-anchor="middle" x="108.18" y="-157.69" font-family="Helvetica,sans-Serif" font-size="14.00">fidelity</text>
<!-- 0 -->
<g id="node1" class="node">
<title>0</title>
<ellipse fill="#e8f4fd" stroke="black" cx="104" cy="-133.99" rx="27" ry="18"/>
<text xml:space="preserve" text-anchor="middle" x="104" y="-129.54" font-family="Helvetica,sans-Serif" font-size="11.00">initial</text>
</g>
<!-- 1 -->
<g id="node2" class="node">
<title>1</title>
<ellipse fill="#ffffff" stroke="black" cx="27" cy="-34.37" rx="27" ry="18"/>
<text xml:space="preserve" text-anchor="middle" x="27" y="-29.92" font-family="Helvetica,sans-Serif" font-size="11.00">next</text>
</g>
<!-- 0&#45;&gt;1 -->
<g id="edge1" class="edge">
<title>0&#45;&gt;1</title>
<path fill="none" stroke="#28a745" d="M78.17,-128.43C60.79,-123.89 39.1,-115.02 28,-97.99 21.52,-88.05 20.39,-75.21 21.21,-63.74"/>
<polygon fill="#28a745" stroke="#28a745" points="24.66,-64.34 22.45,-53.98 17.72,-63.45 24.66,-64.34"/>
<text xml:space="preserve" text-anchor="middle" x="94" y="-88.49" font-family="Helvetica,sans-Serif" font-size="10.00">Spouse1 SHANT be unfaithful</text>
</g>
<!-- 2 -->
<g id="node3" class="node">
<title>2</title>
<ellipse fill="#f8d7da" stroke="black" cx="182" cy="-34.37" rx="30.37" ry="30.37"/>
<ellipse fill="none" stroke="black" cx="182" cy="-34.37" rx="34.37" ry="34.37"/>
<text xml:space="preserve" text-anchor="middle" x="182" y="-29.92" font-family="Helvetica,sans-Serif" font-size="11.00">Breach</text>
</g>
<!-- 0&#45;&gt;2 -->
<g id="edge2" class="edge">
<title>0&#45;&gt;2</title>
<path fill="none" stroke="#dc3545" stroke-dasharray="5,2" d="M126.5,-123.37C137.92,-117.5 151.19,-108.99 160,-97.99 164.49,-92.38 168.1,-85.79 170.99,-79.03"/>
<polygon fill="#dc3545" stroke="#dc3545" points="174.21,-80.39 174.43,-69.79 167.65,-77.94 174.21,-80.39"/>
<text xml:space="preserve" text-anchor="middle" x="183.02" y="-88.49" font-family="Helvetica,sans-Serif" font-size="10.00">timeout</text>
</g>
</g>
</svg>
