<?xml version="1.0" encoding="UTF-8" standalone="no"?>
<!DOCTYPE svg PUBLIC "-//W3C//DTD SVG 1.1//EN"
 "http://www.w3.org/Graphics/SVG/1.1/DTD/svg11.dtd">
<!-- Generated by graphviz version 14.1.0 (20251206.1807)
 -->
<!-- Pages: 1 -->
<svg width="278pt" height="186pt"
 viewBox="0.00 0.00 278.00 186.00" xmlns="http://www.w3.org/2000/svg" xmlns:xlink="http://www.w3.org/1999/xlink">
<g id="graph0" class="graph" transform="scale(1 1) rotate(0) translate(4 181.69)">
<polygon fill="white" stroke="none" points="-4,4 -4,-181.69 274.09,-181.69 274.09,4 -4,4"/>
<text xml:space="preserve" text-anchor="middle" x="135.04" y="-160.39" font-family="Helvetica,sans-Serif" font-size="14.00">goesOn</text>
<!-- 0 -->
<g id="node1" class="node">
<title>0</title>
<ellipse fill="#e8f4fd" stroke="black" cx="135.72" cy="-136.69" rx="27" ry="18"/>
<text xml:space="preserve" text-anchor="middle" x="135.72" y="-132.24" font-family="Helvetica,sans-Serif" font-size="11.00">initial</text>
</g>
<!-- 1 -->
<g id="node2" class="node">
<title>1</title>
<ellipse fill="#d4edda" stroke="black" cx="35.72" cy="-35.72" rx="31.72" ry="31.72"/>
<ellipse fill="none" stroke="black" cx="35.72" cy="-35.72" rx="35.72" ry="35.72"/>
<text xml:space="preserve" text-anchor="middle" x="35.72" y="-31.27" font-family="Helvetica,sans-Serif" font-size="11.00">Fulfilled</text>
</g>
<!-- 0&#45;&gt;1 -->
<g id="edge1" class="edge">
<title>0&#45;&gt;1</title>
<path fill="none" stroke="#28a745" d="M108.9,-134.31C85.61,-131.52 53.11,-123.49 36.72,-100.69 32.86,-95.32 30.74,-88.98 29.76,-82.42"/>
<polygon fill="#28a745" stroke="#28a745" points="33.28,-82.58 29.18,-72.81 26.29,-83 33.28,-82.58"/>
<text xml:space="preserve" text-anchor="middle" x="125.22" y="-91.19" font-family="Helvetica,sans-Serif" font-size="10.00">S MUST payment ... [2] IF n EQUALS 7</text>
</g>
<!-- 2 -->
<g id="node3" class="node">
<title>2</title>
<ellipse fill="#f8d7da" stroke="black" cx="235.72" cy="-35.72" rx="30.37" ry="30.37"/>
<ellipse fill="none" stroke="black" cx="235.72" cy="-35.72" rx="34.37" ry="34.37"/>
<text xml:space="preserve" text-anchor="middle" x="235.72" y="-31.27" font-family="Helvetica,sans-Serif" font-size="11.00">Breach</text>
</g>
<!-- 0&#45;&gt;2 -->
<g id="edge2" class="edge">
<title>0&#45;&gt;2</title>
<path fill="none" stroke="#dc3545" stroke-dasharray="5,2" d="M160.99,-129.99C178.01,-124.93 199.81,-115.92 213.72,-100.69 218.94,-94.98 222.92,-87.98 225.97,-80.72"/>
<polygon fill="#dc3545" stroke="#dc3545" points="229.21,-82.05 229.28,-71.46 222.62,-79.69 229.21,-82.05"/>
<text xml:space="preserve" text-anchor="middle" x="237.32" y="-91.19" font-family="Helvetica,sans-Serif" font-size="10.00">timeout</text>
</g>
</g>
</svg>
