<?xml version="1.0" encoding="UTF-8" standalone="no"?>
<!DOCTYPE svg PUBLIC "-//W3C//DTD SVG 1.1//EN"
 "http://www.w3.org/Graphics/SVG/1.1/DTD/svg11.dtd">
<!-- Generated by graphviz version 14.1.0 (20251206.1807)
 -->
<!-- Pages: 1 -->
<svg width="211pt" height="183pt"
 viewBox="0.00 0.00 211.00 183.00" xmlns="http://www.w3.org/2000/svg" xmlns:xlink="http://www.w3.org/1999/xlink">
<g id="graph0" class="graph" transform="scale(1 1) rotate(0) translate(4 178.99)">
<polygon fill="white" stroke="none" points="-4,4 -4,-178.99 207.37,-178.99 207.37,4 -4,4"/>
<text xml:space="preserve" text-anchor="middle" x="101.68" y="-157.69" font-family="Helvetica,sans-Serif" font-size="14.00">Initial Sale</text>
<!-- 0 -->
<g id="node1" class="node">
<title>0</title>
<ellipse fill="#e8f4fd" stroke="black" cx="98" cy="-133.99" rx="27" ry="18"/>
<text xml:space="preserve" text-anchor="middle" x="98" y="-129.54" font-family="Helvetica,sans-Serif" font-size="11.00">initial</text>
</g>
<!-- 1 -->
<g id="node2" class="node">
<title>1</title>
<ellipse fill="#ffffff" stroke="black" cx="27" cy="-34.37" rx="27" ry="18"/>
<text xml:space="preserve" text-anchor="middle" x="27" y="-29.92" font-family="Helvetica,sans-Serif" font-size="11.00">next</text>
</g>
<!-- 0&#45;&gt;1 -->
<g id="edge1" class="edge">
<title>0&#45;&gt;1</title>
<path fill="none" stroke="#28a745" d="M72.66,-127.47C56.81,-122.58 37.6,-113.68 27.75,-97.99 21.45,-87.94 20.38,-75.08 21.23,-63.63"/>
<polygon fill="#28a745" stroke="#28a745" points="24.68,-64.26 22.48,-53.89 17.74,-63.37 24.68,-64.26"/>
<text xml:space="preserve" text-anchor="middle" x="87.38" y="-88.49" font-family="Helvetica,sans-Serif" font-size="10.00">Seller MUST deliver ... [10]</text>
</g>
<!-- 2 -->
<g id="node3" class="node">
<title>2</title>
<ellipse fill="#f8d7da" stroke="black" cx="169" cy="-34.37" rx="30.37" ry="30.37"/>
<ellipse fill="none" stroke="black" cx="169" cy="-34.37" rx="34.37" ry="34.37"/>
<text xml:space="preserve" text-anchor="middle" x="169" y="-29.92" font-family="Helvetica,sans-Serif" font-size="11.00">Breach</text>
</g>
<!-- 0&#45;&gt;2 -->
<g id="edge2" class="edge">
<title>0&#45;&gt;2</title>
<path fill="none" stroke="#dc3545" stroke-dasharray="5,2" d="M118.91,-122.04C128.6,-116.06 139.59,-107.85 147,-97.99 151.31,-92.24 154.83,-85.58 157.69,-78.79"/>
<polygon fill="#dc3545" stroke="#dc3545" points="160.92,-80.14 161.11,-69.55 154.35,-77.71 160.92,-80.14"/>
<text xml:space="preserve" text-anchor="middle" x="169.8" y="-88.49" font-family="Helvetica,sans-Serif" font-size="10.00">timeout</text>
</g>
</g>
</svg>
