<?xml version="1.0" encoding="UTF-8" standalone="no"?>
<!DOCTYPE svg PUBLIC "-//W3C//DTD SVG 1.1//EN"
 "http://www.w3.org/Graphics/SVG/1.1/DTD/svg11.dtd">
<!-- Generated by graphviz version 14.1.0 (20251206.1807)
 -->
<!-- Pages: 1 -->
<svg width="358pt" height="186pt"
 viewBox="0.00 0.00 358.00 186.00" xmlns="http://www.w3.org/2000/svg" xmlns:xlink="http://www.w3.org/1999/xlink">
<g id="graph0" class="graph" transform="scale(1 1) rotate(0) translate(4 181.69)">
<polygon fill="white" stroke="none" points="-4,4 -4,-181.69 354.09,-181.69 354.09,4 -4,4"/>
<text xml:space="preserve" text-anchor="middle" x="175.04" y="-160.39" font-family="Helvetica,sans-Serif" font-size="14.00">limitedGambling</text>
<!-- 0 -->
<g id="node1" class="node">
<title>0</title>
<ellipse fill="#e8f4fd" stroke="black" cx="175.72" cy="-136.69" rx="27" ry="18"/>
<text xml:space="preserve" text-anchor="middle" x="175.72" y="-132.24" font-family="Helvetica,sans-Serif" font-size="11.00">initial</text>
</g>
<!-- 1 -->
<g id="node2" class="node">
<title>1</title>
<ellipse fill="#d4edda" stroke="black" cx="35.72" cy="-35.72" rx="31.72" ry="31.72"/>
<ellipse fill="none" stroke="black" cx="35.72" cy="-35.72" rx="35.72" ry="35.72"/>
<text xml:space="preserve" text-anchor="middle" x="35.72" y="-31.27" font-family="Helvetica,sans-Serif" font-size="11.00">Fulfilled</text>
</g>
<!-- 0&#45;&gt;1 -->
<g id="edge1" class="edge">
<title>0&#45;&gt;1</title>
<path fill="none" stroke="#28a745" d="M148.95,-132.81C112.52,-128.28 50.25,-118.16 36.47,-100.69 32.28,-95.39 30.04,-88.99 29.06,-82.31"/>
<polygon fill="#28a745" stroke="#28a745" points="32.57,-82.29 28.56,-72.48 25.58,-82.65 32.57,-82.29"/>
<text xml:space="preserve" text-anchor="middle" x="165.1" y="-91.19" font-family="Helvetica,sans-Serif" font-size="10.00">Alice SHANT gamble ... [30] IF amt GREATER THAN 100</text>
</g>
<!-- 2 -->
<g id="node3" class="node">
<title>2</title>
<ellipse fill="#f8d7da" stroke="black" cx="315.72" cy="-35.72" rx="30.37" ry="30.37"/>
<ellipse fill="none" stroke="black" cx="315.72" cy="-35.72" rx="34.37" ry="34.37"/>
<text xml:space="preserve" text-anchor="middle" x="315.72" y="-31.27" font-family="Helvetica,sans-Serif" font-size="11.00">Breach</text>
</g>
<!-- 0&#45;&gt;2 -->
<g id="edge2" class="edge">
<title>0&#45;&gt;2</title>
<path fill="none" stroke="#dc3545" stroke-dasharray="5,2" d="M202.89,-134.57C229.36,-132.05 269.11,-124.27 293.72,-100.69 299.48,-95.17 303.74,-88.07 306.88,-80.62"/>
<polygon fill="#dc3545" stroke="#dc3545" points="310.1,-82.01 310.11,-71.41 303.5,-79.68 310.1,-82.01"/>
<text xml:space="preserve" text-anchor="middle" x="319.64" y="-91.19" font-family="Helvetica,sans-Serif" font-size="10.00">violation</text>
</g>
</g>
</svg>
