<?xml version="1.0" encoding="UTF-8" standalone="no"?>
<!DOCTYPE svg PUBLIC "-//W3C//DTD SVG 1.1//EN"
 "http://www.w3.org/Graphics/SVG/1.1/DTD/svg11.dtd">
<!-- Generated by graphviz version 14.1.0 (20251206.1807)
 -->
<!-- Pages: 1 -->
<svg width="247pt" height="183pt"
 viewBox="0.00 0.00 247.00 183.00" xmlns="http://www.w3.org/2000/svg" xmlns:xlink="http://www.w3.org/1999/xlink">
<g id="graph0" class="graph" transform="scale(1 1) rotate(0) translate(4 178.99)">
<polygon fill="white" stroke="none" points="-4,4 -4,-178.99 243.37,-178.99 243.37,4 -4,4"/>
<text xml:space="preserve" text-anchor="middle" x="119.68" y="-157.69" font-family="Helvetica,sans-Serif" font-size="14.00">loanAgreement</text>
<!-- 0 -->
<g id="node1" class="node">
<title>0</title>
<ellipse fill="#e8f4fd" stroke="black" cx="116" cy="-133.99" rx="27" ry="18"/>
<text xml:space="preserve" text-anchor="middle" x="116" y="-129.54" font-family="Helvetica,sans-Serif" font-size="11.00">initial</text>
</g>
<!-- 1 -->
<g id="node2" class="node">
<title>1</title>
<ellipse fill="#ffffff" stroke="black" cx="27" cy="-34.37" rx="27" ry="18"/>
<text xml:space="preserve" text-anchor="middle" x="27" y="-29.92" font-family="Helvetica,sans-Serif" font-size="11.00">next</text>
</g>
<!-- 0&#45;&gt;1 -->
<g id="edge1" class="edge">
<title>0&#45;&gt;1</title>
<path fill="none" stroke="#28a745" d="M89.1,-130.21C68.54,-126.52 41.48,-117.95 27.75,-97.99 21.03,-88.21 19.9,-75.4 20.82,-63.91"/>
<polygon fill="#28a745" stroke="#28a745" points="24.27,-64.48 22.16,-54.1 17.34,-63.53 24.27,-64.48"/>
<text xml:space="preserve" text-anchor="middle" x="105.38" y="-88.49" font-family="Helvetica,sans-Serif" font-size="10.00">borrower MUST PayMoney ... [365]</text>
</g>
<!-- 2 -->
<g id="node3" class="node">
<title>2</title>
<ellipse fill="#f8d7da" stroke="black" cx="205" cy="-34.37" rx="30.37" ry="30.37"/>
<ellipse fill="none" stroke="black" cx="205" cy="-34.37" rx="34.37" ry="34.37"/>
<text xml:space="preserve" text-anchor="middle" x="205" y="-29.92" font-family="Helvetica,sans-Serif" font-size="11.00">Breach</text>
</g>
<!-- 0&#45;&gt;2 -->
<g id="edge2" class="edge">
<title>0&#45;&gt;2</title>
<path fill="none" stroke="#dc3545" stroke-dasharray="5,2" d="M140.27,-125.4C154.47,-119.84 171.75,-110.98 183,-97.99 187.75,-92.5 191.5,-85.92 194.44,-79.12"/>
<polygon fill="#dc3545" stroke="#dc3545" points="197.71,-80.38 197.92,-69.79 191.15,-77.94 197.71,-80.38"/>
<text xml:space="preserve" text-anchor="middle" x="206.3" y="-88.49" font-family="Helvetica,sans-Serif" font-size="10.00">timeout</text>
</g>
</g>
</svg>
