<?xml version="1.0" encoding="UTF-8" standalone="no"?>
<!DOCTYPE svg PUBLIC "-//W3C//DTD SVG 1.1//EN"
 "http://www.w3.org/Graphics/SVG/1.1/DTD/svg11.dtd">
<!-- Generated by graphviz version 14.1.0 (20251206.1807)
 -->
<!-- Pages: 1 -->
<svg width="865pt" height="183pt"
 viewBox="0.00 0.00 865.00 183.00" xmlns="http://www.w3.org/2000/svg" xmlns:xlink="http://www.w3.org/1999/xlink">
<g id="graph0" class="graph" transform="scale(1 1) rotate(0) translate(4 178.99)">
<polygon fill="white" stroke="none" points="-4,4 -4,-178.99 861.16,-178.99 861.16,4 -4,4"/>
<text xml:space="preserve" text-anchor="middle" x="428.58" y="-157.69" font-family="Helvetica,sans-Serif" font-size="14.00">marriage contract</text>
<!-- 0 -->
<g id="node1" class="node">
<title>0</title>
<ellipse fill="#e8f4fd" stroke="black" cx="282" cy="-133.99" rx="27" ry="18"/>
<text xml:space="preserve" text-anchor="middle" x="282" y="-129.54" font-family="Helvetica,sans-Serif" font-size="11.00">initial</text>
</g>
<!-- 1 -->
<g id="node2" class="node">
<title>1</title>
<ellipse fill="#ffffff" stroke="black" cx="239" cy="-34.37" rx="27" ry="18"/>
<text xml:space="preserve" text-anchor="middle" x="239" y="-29.92" font-family="Helvetica,sans-Serif" font-size="11.00">next</text>
</g>
<!-- 0&#45;&gt;1 -->
<g id="edge1" class="edge">
<title>0&#45;&gt;1</title>
<path fill="none" stroke="#28a745" d="M261.88,-121.64C253.51,-115.76 244.67,-107.75 240,-97.99 235.01,-87.54 233.99,-74.95 234.51,-63.81"/>
<polygon fill="#28a745" stroke="#28a745" points="237.99,-64.24 235.43,-53.96 231.02,-63.6 237.99,-64.24"/>
<text xml:space="preserve" text-anchor="middle" x="312" y="-88.49" font-family="Helvetica,sans-Serif" font-size="10.00">Spouse1 MUST love and cherish</text>
</g>
<!-- 2 -->
<g id="node3" class="node">
<title>2</title>
<ellipse fill="#f8d7da" stroke="black" cx="421" cy="-34.37" rx="30.37" ry="30.37"/>
<ellipse fill="none" stroke="black" cx="421" cy="-34.37" rx="34.37" ry="34.37"/>
<text xml:space="preserve" text-anchor="middle" x="421" y="-29.92" font-family="Helvetica,sans-Serif" font-size="11.00">Breach</text>
</g>
<!-- 0&#45;&gt;2 -->
<g id="edge2" class="edge">
<title>0&#45;&gt;2</title>
<path fill="none" stroke="#dc3545" stroke-dasharray="5,2" d="M308.34,-129.16C330.54,-124.81 362.09,-115.85 384,-97.99 391.24,-92.09 397.38,-84.37 402.46,-76.38"/>
<polygon fill="#dc3545" stroke="#dc3545" points="405.38,-78.32 407.37,-67.91 399.32,-74.81 405.38,-78.32"/>
<text xml:space="preserve" text-anchor="middle" x="411.15" y="-88.49" font-family="Helvetica,sans-Serif" font-size="10.00">timeout</text>
</g>
<!-- 3 -->
<g id="node4" class="node">
<title>3</title>
<ellipse fill="#e8f4fd" stroke="black" cx="140" cy="-133.99" rx="27" ry="18"/>
<text xml:space="preserve" text-anchor="middle" x="140" y="-129.54" font-family="Helvetica,sans-Serif" font-size="11.00">initial</text>
</g>
<!-- 3&#45;&gt;2 -->
<g id="edge3" class="edge">
<title>3&#45;&gt;2</title>
<path fill="none" stroke="#dc3545" stroke-dasharray="5,2" d="M154.5,-118.83C165.91,-108.46 182.69,-94.84 199.75,-86.74 201.77,-85.78 312.26,-60.33 376.31,-45.62"/>
<polygon fill="#dc3545" stroke="#dc3545" points="376.87,-49.08 385.83,-43.43 375.31,-42.26 376.87,-49.08"/>
<text xml:space="preserve" text-anchor="middle" x="215.88" y="-88.49" font-family="Helvetica,sans-Serif" font-size="10.00">timeout</text>
</g>
<!-- 4 -->
<g id="node5" class="node">
<title>4</title>
<ellipse fill="#ffffff" stroke="black" cx="27" cy="-34.37" rx="27" ry="18"/>
<text xml:space="preserve" text-anchor="middle" x="27" y="-29.92" font-family="Helvetica,sans-Serif" font-size="11.00">next</text>
</g>
<!-- 3&#45;&gt;4 -->
<g id="edge4" class="edge">
<title>3&#45;&gt;4</title>
<path fill="none" stroke="#28a745" d="M112.96,-132.85C86.7,-131.11 48.02,-123.92 28.5,-97.99 21.24,-88.34 19.99,-75.29 20.91,-63.6"/>
<polygon fill="#28a745" stroke="#28a745" points="24.33,-64.41 22.2,-54.03 17.4,-63.47 24.33,-64.41"/>
<text xml:space="preserve" text-anchor="middle" x="95.25" y="-88.49" font-family="Helvetica,sans-Serif" font-size="10.00">Spouse1 MUST have and hold</text>
</g>
<!-- 5 -->
<g id="node6" class="node">
<title>5</title>
<ellipse fill="#e8f4fd" stroke="black" cx="700" cy="-133.99" rx="27" ry="18"/>
<text xml:space="preserve" text-anchor="middle" x="700" y="-129.54" font-family="Helvetica,sans-Serif" font-size="11.00">initial</text>
</g>
<!-- 5&#45;&gt;2 -->
<g id="edge5" class="edge">
<title>5&#45;&gt;2</title>
<path fill="none" stroke="#dc3545" stroke-dasharray="5,2" d="M685.87,-118.7C674.32,-107.97 657.01,-93.95 639,-86.74 572.97,-60.31 547.65,-90.68 480,-68.74 472.93,-66.44 465.76,-63.25 458.96,-59.74"/>
<polygon fill="#dc3545" stroke="#dc3545" points="461.11,-56.93 450.66,-55.17 457.74,-63.06 461.11,-56.93"/>
<text xml:space="preserve" text-anchor="middle" x="675.37" y="-88.49" font-family="Helvetica,sans-Serif" font-size="10.00">timeout</text>
</g>
<!-- 6 -->
<g id="node7" class="node">
<title>6</title>
<ellipse fill="#ffffff" stroke="black" cx="728" cy="-34.37" rx="27" ry="18"/>
<text xml:space="preserve" text-anchor="middle" x="728" y="-29.92" font-family="Helvetica,sans-Serif" font-size="11.00">next</text>
</g>
<!-- 5&#45;&gt;6 -->
<g id="edge6" class="edge">
<title>5&#45;&gt;6</title>
<path fill="none" stroke="#28a745" d="M704.88,-115.98C709.03,-101.51 715.07,-80.44 719.94,-63.47"/>
<polygon fill="#28a745" stroke="#28a745" points="723.27,-64.54 722.67,-53.96 716.55,-62.61 723.27,-64.54"/>
<text xml:space="preserve" text-anchor="middle" x="785.16" y="-88.49" font-family="Helvetica,sans-Serif" font-size="10.00">Spouse2 MUST love and cherish</text>
</g>
<!-- 7 -->
<g id="node8" class="node">
<title>7</title>
<ellipse fill="#e8f4fd" stroke="black" cx="488" cy="-133.99" rx="27" ry="18"/>
<text xml:space="preserve" text-anchor="middle" x="488" y="-129.54" font-family="Helvetica,sans-Serif" font-size="11.00">initial</text>
</g>
<!-- 7&#45;&gt;2 -->
<g id="edge7" class="edge">
<title>7&#45;&gt;2</title>
<path fill="none" stroke="#dc3545" stroke-dasharray="5,2" d="M476.56,-117.39C472.19,-111.36 467.19,-104.39 462.75,-97.99 457.18,-89.96 451.31,-81.28 445.78,-73.02"/>
<polygon fill="#dc3545" stroke="#dc3545" points="448.78,-71.21 440.32,-64.83 442.95,-75.09 448.78,-71.21"/>
<text xml:space="preserve" text-anchor="middle" x="478.88" y="-88.49" font-family="Helvetica,sans-Serif" font-size="10.00">timeout</text>
</g>
<!-- 8 -->
<g id="node9" class="node">
<title>8</title>
<ellipse fill="#ffffff" stroke="black" cx="516" cy="-34.37" rx="27" ry="18"/>
<text xml:space="preserve" text-anchor="middle" x="516" y="-29.92" font-family="Helvetica,sans-Serif" font-size="11.00">next</text>
</g>
<!-- 7&#45;&gt;8 -->
<g id="edge8" class="edge">
<title>7&#45;&gt;8</title>
<path fill="none" stroke="#28a745" d="M492.88,-115.98C497.03,-101.51 503.07,-80.44 507.94,-63.47"/>
<polygon fill="#28a745" stroke="#28a745" points="511.27,-64.54 510.67,-53.96 504.55,-62.61 511.27,-64.54"/>
<text xml:space="preserve" text-anchor="middle" x="567.91" y="-88.49" font-family="Helvetica,sans-Serif" font-size="10.00">Spouse2 MUST have and hold</text>
</g>
</g>
</svg>
