<?xml version="1.0" encoding="UTF-8" standalone="no"?>
<!DOCTYPE svg PUBLIC "-//W3C//DTD SVG 1.1//EN"
 "http://www.w3.org/Graphics/SVG/1.1/DTD/svg11.dtd">
<!-- Generated by graphviz version 14.1.0 (20251206.1807)
 -->
<!-- Pages: 1 -->
<svg width="198pt" height="186pt"
 viewBox="0.00 0.00 198.00 186.00" xmlns="http://www.w3.org/2000/svg" xmlns:xlink="http://www.w3.org/1999/xlink">
<g id="graph0" class="graph" transform="scale(1 1) rotate(0) translate(4 181.69)">
<polygon fill="white" stroke="none" points="-4,4 -4,-181.69 194.09,-181.69 194.09,4 -4,4"/>
<text xml:space="preserve" text-anchor="middle" x="95.04" y="-160.39" font-family="Helvetica,sans-Serif" font-size="14.00">mustDrink</text>
<!-- 0 -->
<g id="node1" class="node">
<title>0</title>
<ellipse fill="#e8f4fd" stroke="black" cx="95.72" cy="-136.69" rx="27" ry="18"/>
<text xml:space="preserve" text-anchor="middle" x="95.72" y="-132.24" font-family="Helvetica,sans-Serif" font-size="11.00">initial</text>
</g>
<!-- 1 -->
<g id="node2" class="node">
<title>1</title>
<ellipse fill="#d4edda" stroke="black" cx="35.72" cy="-35.72" rx="31.72" ry="31.72"/>
<ellipse fill="none" stroke="black" cx="35.72" cy="-35.72" rx="35.72" ry="35.72"/>
<text xml:space="preserve" text-anchor="middle" x="35.72" y="-31.27" font-family="Helvetica,sans-Serif" font-size="11.00">Fulfilled</text>
</g>
<!-- 0&#45;&gt;1 -->
<g id="edge1" class="edge">
<title>0&#45;&gt;1</title>
<path fill="none" stroke="#28a745" d="M71.77,-127.92C59.07,-122.44 44.55,-113.73 36.97,-100.69 33.8,-95.23 31.97,-89.04 31.05,-82.71"/>
<polygon fill="#28a745" stroke="#28a745" points="34.55,-82.55 30.38,-72.81 27.56,-83.02 34.55,-82.55"/>
<text xml:space="preserve" text-anchor="middle" x="85.35" y="-91.19" font-family="Helvetica,sans-Serif" font-size="10.00">Alice MUST drink [30]</text>
</g>
<!-- 2 -->
<g id="node3" class="node">
<title>2</title>
<ellipse fill="#f8d7da" stroke="black" cx="155.72" cy="-35.72" rx="30.37" ry="30.37"/>
<ellipse fill="none" stroke="black" cx="155.72" cy="-35.72" rx="34.37" ry="34.37"/>
<text xml:space="preserve" text-anchor="middle" x="155.72" y="-31.27" font-family="Helvetica,sans-Serif" font-size="11.00">Breach</text>
</g>
<!-- 0&#45;&gt;2 -->
<g id="edge2" class="edge">
<title>0&#45;&gt;2</title>
<path fill="none" stroke="#dc3545" stroke-dasharray="5,2" d="M113.44,-122.58C120.55,-116.57 128.32,-108.95 133.72,-100.69 137.82,-94.42 141.24,-87.31 144.06,-80.16"/>
<polygon fill="#dc3545" stroke="#dc3545" points="147.33,-81.41 147.4,-70.82 140.74,-79.06 147.33,-81.41"/>
<text xml:space="preserve" text-anchor="middle" x="156.13" y="-91.19" font-family="Helvetica,sans-Serif" font-size="10.00">timeout</text>
</g>
</g>
</svg>
