<?xml version="1.0" encoding="UTF-8" standalone="no"?>
<!DOCTYPE svg PUBLIC "-//W3C//DTD SVG 1.1//EN"
 "http://www.w3.org/Graphics/SVG/1.1/DTD/svg11.dtd">
<!-- Generated by graphviz version 14.1.0 (20251206.1807)
 -->
<!-- Pages: 1 -->
<svg width="208pt" height="183pt"
 viewBox="0.00 0.00 208.00 183.00" xmlns="http://www.w3.org/2000/svg" xmlns:xlink="http://www.w3.org/1999/xlink">
<g id="graph0" class="graph" transform="scale(1 1) rotate(0) translate(4 178.99)">
<polygon fill="white" stroke="none" points="-4,4 -4,-178.99 204.37,-178.99 204.37,4 -4,4"/>
<text xml:space="preserve" text-anchor="middle" x="100.18" y="-157.69" font-family="Helvetica,sans-Serif" font-size="14.00">no abandonment</text>
<!-- 0 -->
<g id="node1" class="node">
<title>0</title>
<ellipse fill="#e8f4fd" stroke="black" cx="96" cy="-133.99" rx="27" ry="18"/>
<text xml:space="preserve" text-anchor="middle" x="96" y="-129.54" font-family="Helvetica,sans-Serif" font-size="11.00">initial</text>
</g>
<!-- 1 -->
<g id="node2" class="node">
<title>1</title>
<ellipse fill="#ffffff" stroke="black" cx="27" cy="-34.37" rx="27" ry="18"/>
<text xml:space="preserve" text-anchor="middle" x="27" y="-29.92" font-family="Helvetica,sans-Serif" font-size="11.00">next</text>
</g>
<!-- 0&#45;&gt;1 -->
<g id="edge1" class="edge">
<title>0&#45;&gt;1</title>
<path fill="none" stroke="#28a745" d="M70.67,-126.82C55.65,-121.74 37.8,-112.88 28.5,-97.99 22.26,-87.99 21.03,-75.24 21.69,-63.85"/>
<polygon fill="#28a745" stroke="#28a745" points="25.14,-64.49 22.77,-54.16 18.19,-63.71 25.14,-64.49"/>
<text xml:space="preserve" text-anchor="middle" x="86.25" y="-88.49" font-family="Helvetica,sans-Serif" font-size="10.00">Spouse1 SHANT abandon</text>
</g>
<!-- 2 -->
<g id="node3" class="node">
<title>2</title>
<ellipse fill="#f8d7da" stroke="black" cx="166" cy="-34.37" rx="30.37" ry="30.37"/>
<ellipse fill="none" stroke="black" cx="166" cy="-34.37" rx="34.37" ry="34.37"/>
<text xml:space="preserve" text-anchor="middle" x="166" y="-29.92" font-family="Helvetica,sans-Serif" font-size="11.00">Breach</text>
</g>
<!-- 0&#45;&gt;2 -->
<g id="edge2" class="edge">
<title>0&#45;&gt;2</title>
<path fill="none" stroke="#dc3545" stroke-dasharray="5,2" d="M116.48,-121.95C125.97,-115.95 136.74,-107.75 144,-97.99 148.24,-92.28 151.72,-85.69 154.55,-78.97"/>
<polygon fill="#dc3545" stroke="#dc3545" points="157.74,-80.43 157.95,-69.83 151.18,-77.98 157.74,-80.43"/>
<text xml:space="preserve" text-anchor="middle" x="166.76" y="-88.49" font-family="Helvetica,sans-Serif" font-size="10.00">timeout</text>
</g>
</g>
</svg>
