<?xml version="1.0" encoding="UTF-8" standalone="no"?>
<!DOCTYPE svg PUBLIC "-//W3C//DTD SVG 1.1//EN"
 "http://www.w3.org/Graphics/SVG/1.1/DTD/svg11.dtd">
<!-- Generated by graphviz version 14.1.0 (20251206.1807)
 -->
<!-- Pages: 1 -->
<svg width="266pt" height="269pt"
 viewBox="0.00 0.00 266.00 269.00" xmlns="http://www.w3.org/2000/svg" xmlns:xlink="http://www.w3.org/1999/xlink">
<g id="graph0" class="graph" transform="scale(1 1) rotate(0) translate(4 264.94)">
<polygon fill="white" stroke="none" points="-4,4 -4,-264.94 261.89,-264.94 261.89,4 -4,4"/>
<text xml:space="preserve" text-anchor="middle" x="128.95" y="-243.64" font-family="Helvetica,sans-Serif" font-size="14.00">noSmokingWithConsequences</text>
<!-- 0 -->
<g id="node1" class="node">
<title>0</title>
<ellipse fill="#e8f4fd" stroke="black" cx="34.72" cy="-219.94" rx="27" ry="18"/>
<text xml:space="preserve" text-anchor="middle" x="34.72" y="-215.49" font-family="Helvetica,sans-Serif" font-size="11.00">initial</text>
</g>
<!-- 1 -->
<g id="node2" class="node">
<title>1</title>
<ellipse fill="#d4edda" stroke="black" cx="35.72" cy="-35.72" rx="31.72" ry="31.72"/>
<ellipse fill="none" stroke="black" cx="35.72" cy="-35.72" rx="35.72" ry="35.72"/>
<text xml:space="preserve" text-anchor="middle" x="35.72" y="-31.27" font-family="Helvetica,sans-Serif" font-size="11.00">Fulfilled</text>
</g>
<!-- 0&#45;&gt;1 -->
<g id="edge1" class="edge">
<title>0&#45;&gt;1</title>
<path fill="none" stroke="#28a745" d="M32.31,-201.53C30.64,-188.63 28.58,-170.6 27.72,-154.69 26.43,-130.97 27.94,-104.6 29.99,-82.81"/>
<polygon fill="#28a745" stroke="#28a745" points="33.45,-83.36 30.97,-73.05 26.48,-82.65 33.45,-83.36"/>
<text xml:space="preserve" text-anchor="middle" x="83.22" y="-132.82" font-family="Helvetica,sans-Serif" font-size="10.00">Alice SHANT smoke [30]</text>
</g>
<!-- 2 -->
<g id="node3" class="node">
<title>2</title>
<ellipse fill="#ffffff" stroke="black" cx="202.72" cy="-136.69" rx="55.17" ry="18"/>
<text xml:space="preserve" text-anchor="middle" x="202.72" y="-132.24" font-family="Helvetica,sans-Serif" font-size="11.00">Alice must drink</text>
</g>
<!-- 0&#45;&gt;2 -->
<g id="edge2" class="edge">
<title>0&#45;&gt;2</title>
<path fill="none" stroke="#dc3545" stroke-dasharray="5,2" d="M56,-208.65C82.8,-195.69 129.41,-173.15 162.91,-156.95"/>
<polygon fill="#dc3545" stroke="#dc3545" points="164,-160.3 171.48,-152.8 160.96,-154 164,-160.3"/>
<text xml:space="preserve" text-anchor="middle" x="144.9" y="-174.44" font-family="Helvetica,sans-Serif" font-size="10.00">timeout</text>
</g>
<!-- 2&#45;&gt;1 -->
<g id="edge3" class="edge">
<title>2&#45;&gt;1</title>
<path fill="none" stroke="#28a745" d="M159.72,-125.24C141.13,-119.61 119.64,-111.55 101.97,-100.69 89.18,-92.83 76.86,-82.13 66.39,-71.73"/>
<polygon fill="#28a745" stroke="#28a745" points="68.94,-69.34 59.46,-64.6 63.92,-74.21 68.94,-69.34"/>
<text xml:space="preserve" text-anchor="middle" x="150.35" y="-91.19" font-family="Helvetica,sans-Serif" font-size="10.00">Alice MUST drink [10]</text>
</g>
<!-- 3 -->
<g id="node4" class="node">
<title>3</title>
<ellipse fill="#f8d7da" stroke="black" cx="202.72" cy="-35.72" rx="30.37" ry="30.37"/>
<ellipse fill="none" stroke="black" cx="202.72" cy="-35.72" rx="34.37" ry="34.37"/>
<text xml:space="preserve" text-anchor="middle" x="202.72" y="-31.27" font-family="Helvetica,sans-Serif" font-size="11.00">Breach</text>
</g>
<!-- 2&#45;&gt;3 -->
<g id="edge4" class="edge">
<title>2&#45;&gt;3</title>
<path fill="none" stroke="#dc3545" stroke-dasharray="5,2" d="M202.72,-118.45C202.72,-108.26 202.72,-94.83 202.72,-81.81"/>
<polygon fill="#dc3545" stroke="#dc3545" points="206.22,-82.08 202.72,-72.08 199.22,-82.08 206.22,-82.08"/>
<text xml:space="preserve" text-anchor="middle" x="218.85" y="-91.19" font-family="Helvetica,sans-Serif" font-size="10.00">timeout</text>
</g>
</g>
</svg>
