<?xml version="1.0" encoding="UTF-8" standalone="no"?>
<!DOCTYPE svg PUBLIC "-//W3C//DTD SVG 1.1//EN"
 "http://www.w3.org/Graphics/SVG/1.1/DTD/svg11.dtd">
<!-- Generated by graphviz version 14.1.0 (20251206.1807)
 -->
<!-- Pages: 1 -->
<svg width="212pt" height="186pt"
 viewBox="0.00 0.00 212.00 186.00" xmlns="http://www.w3.org/2000/svg" xmlns:xlink="http://www.w3.org/1999/xlink">
<g id="graph0" class="graph" transform="scale(1 1) rotate(0) translate(4 181.69)">
<polygon fill="white" stroke="none" points="-4,4 -4,-181.69 208.09,-181.69 208.09,4 -4,4"/>
<text xml:space="preserve" text-anchor="middle" x="102.04" y="-160.39" font-family="Helvetica,sans-Serif" font-size="14.00">noSmokingBreachWithReason</text>
<!-- 0 -->
<g id="node1" class="node">
<title>0</title>
<ellipse fill="#e8f4fd" stroke="black" cx="102.72" cy="-136.69" rx="27" ry="18"/>
<text xml:space="preserve" text-anchor="middle" x="102.72" y="-132.24" font-family="Helvetica,sans-Serif" font-size="11.00">initial</text>
</g>
<!-- 1 -->
<g id="node2" class="node">
<title>1</title>
<ellipse fill="#d4edda" stroke="black" cx="35.72" cy="-35.72" rx="31.72" ry="31.72"/>
<ellipse fill="none" stroke="black" cx="35.72" cy="-35.72" rx="35.72" ry="35.72"/>
<text xml:space="preserve" text-anchor="middle" x="35.72" y="-31.27" font-family="Helvetica,sans-Serif" font-size="11.00">Fulfilled</text>
</g>
<!-- 0&#45;&gt;1 -->
<g id="edge1" class="edge">
<title>0&#45;&gt;1</title>
<path fill="none" stroke="#28a745" d="M77.56,-129.29C62.93,-124.14 45.66,-115.29 36.72,-100.69 33.42,-95.3 31.54,-89.15 30.61,-82.84"/>
<polygon fill="#28a745" stroke="#28a745" points="34.11,-82.7 29.95,-72.96 27.12,-83.16 34.11,-82.7"/>
<text xml:space="preserve" text-anchor="middle" x="92.22" y="-91.19" font-family="Helvetica,sans-Serif" font-size="10.00">Alice SHANT smoke [30]</text>
</g>
<!-- 2 -->
<g id="node3" class="node">
<title>2</title>
<ellipse fill="#f8d7da" stroke="black" cx="169.72" cy="-35.72" rx="30.37" ry="30.37"/>
<ellipse fill="none" stroke="black" cx="169.72" cy="-35.72" rx="34.37" ry="34.37"/>
<text xml:space="preserve" text-anchor="middle" x="169.72" y="-31.27" font-family="Helvetica,sans-Serif" font-size="11.00">Breach</text>
</g>
<!-- 0&#45;&gt;2 -->
<g id="edge2" class="edge">
<title>0&#45;&gt;2</title>
<path fill="none" stroke="#dc3545" stroke-dasharray="5,2" d="M122.39,-124.12C131.18,-118.09 141.05,-110.03 147.72,-100.69 152.07,-94.6 155.62,-87.58 158.5,-80.46"/>
<polygon fill="#dc3545" stroke="#dc3545" points="161.77,-81.72 161.85,-71.13 155.18,-79.35 161.77,-81.72"/>
<text xml:space="preserve" text-anchor="middle" x="170.45" y="-91.19" font-family="Helvetica,sans-Serif" font-size="10.00">timeout</text>
</g>
</g>
</svg>
