<?xml version="1.0" encoding="UTF-8" standalone="no"?>
<!DOCTYPE svg PUBLIC "-//W3C//DTD SVG 1.1//EN"
 "http://www.w3.org/Graphics/SVG/1.1/DTD/svg11.dtd">
<!-- Generated by graphviz version 14.1.0 (20251206.1807)
 -->
<!-- Pages: 1 -->
<svg width="228pt" height="183pt"
 viewBox="0.00 0.00 228.00 183.00" xmlns="http://www.w3.org/2000/svg" xmlns:xlink="http://www.w3.org/1999/xlink">
<g id="graph0" class="graph" transform="scale(1 1) rotate(0) translate(4 178.99)">
<polygon fill="white" stroke="none" points="-4,4 -4,-178.99 224.37,-178.99 224.37,4 -4,4"/>
<text xml:space="preserve" text-anchor="middle" x="110.18" y="-157.69" font-family="Helvetica,sans-Serif" font-size="14.00">paymentDue</text>
<!-- 0 -->
<g id="node1" class="node">
<title>0</title>
<ellipse fill="#e8f4fd" stroke="black" cx="106" cy="-133.99" rx="27" ry="18"/>
<text xml:space="preserve" text-anchor="middle" x="106" y="-129.54" font-family="Helvetica,sans-Serif" font-size="11.00">initial</text>
</g>
<!-- 1 -->
<g id="node2" class="node">
<title>1</title>
<ellipse fill="#ffffff" stroke="black" cx="27" cy="-34.37" rx="27" ry="18"/>
<text xml:space="preserve" text-anchor="middle" x="27" y="-29.92" font-family="Helvetica,sans-Serif" font-size="11.00">next</text>
</g>
<!-- 0&#45;&gt;1 -->
<g id="edge1" class="edge">
<title>0&#45;&gt;1</title>
<path fill="none" stroke="#28a745" d="M79.99,-128.68C62.17,-124.25 39.76,-115.4 28.25,-97.99 21.71,-88.09 20.52,-75.25 21.3,-63.78"/>
<polygon fill="#28a745" stroke="#28a745" points="24.76,-64.36 22.51,-54.01 17.81,-63.5 24.76,-64.36"/>
<text xml:space="preserve" text-anchor="middle" x="96.12" y="-88.49" font-family="Helvetica,sans-Serif" font-size="10.00">client MUST PayMoney ... [30]</text>
</g>
<!-- 2 -->
<g id="node3" class="node">
<title>2</title>
<ellipse fill="#f8d7da" stroke="black" cx="186" cy="-34.37" rx="30.37" ry="30.37"/>
<ellipse fill="none" stroke="black" cx="186" cy="-34.37" rx="34.37" ry="34.37"/>
<text xml:space="preserve" text-anchor="middle" x="186" y="-29.92" font-family="Helvetica,sans-Serif" font-size="11.00">Breach</text>
</g>
<!-- 0&#45;&gt;2 -->
<g id="edge2" class="edge">
<title>0&#45;&gt;2</title>
<path fill="none" stroke="#dc3545" stroke-dasharray="5,2" d="M128.73,-123.83C140.68,-118 154.72,-109.39 164,-97.99 168.53,-92.41 172.16,-85.84 175.06,-79.09"/>
<polygon fill="#dc3545" stroke="#dc3545" points="178.29,-80.45 178.51,-69.86 171.73,-78 178.29,-80.45"/>
<text xml:space="preserve" text-anchor="middle" x="187.08" y="-88.49" font-family="Helvetica,sans-Serif" font-size="10.00">timeout</text>
</g>
</g>
</svg>
