<?xml version="1.0" encoding="UTF-8" standalone="no"?>
<!DOCTYPE svg PUBLIC "-//W3C//DTD SVG 1.1//EN"
 "http://www.w3.org/Graphics/SVG/1.1/DTD/svg11.dtd">
<!-- Generated by graphviz version 14.1.0 (20251206.1807)
 -->
<!-- Pages: 1 -->
<svg width="216pt" height="183pt"
 viewBox="0.00 0.00 216.00 183.00" xmlns="http://www.w3.org/2000/svg" xmlns:xlink="http://www.w3.org/1999/xlink">
<g id="graph0" class="graph" transform="scale(1 1) rotate(0) translate(4 178.99)">
<polygon fill="white" stroke="none" points="-4,4 -4,-178.99 212.37,-178.99 212.37,4 -4,4"/>
<text xml:space="preserve" text-anchor="middle" x="104.18" y="-157.69" font-family="Helvetica,sans-Serif" font-size="14.00">Series A Issue</text>
<!-- 0 -->
<g id="node1" class="node">
<title>0</title>
<ellipse fill="#e8f4fd" stroke="black" cx="100" cy="-133.99" rx="27" ry="18"/>
<text xml:space="preserve" text-anchor="middle" x="100" y="-129.54" font-family="Helvetica,sans-Serif" font-size="11.00">initial</text>
</g>
<!-- 1 -->
<g id="node2" class="node">
<title>1</title>
<ellipse fill="#ffffff" stroke="black" cx="27" cy="-34.37" rx="27" ry="18"/>
<text xml:space="preserve" text-anchor="middle" x="27" y="-29.92" font-family="Helvetica,sans-Serif" font-size="11.00">next</text>
</g>
<!-- 0&#45;&gt;1 -->
<g id="edge1" class="edge">
<title>0&#45;&gt;1</title>
<path fill="none" stroke="#28a745" d="M74.53,-127.7C58.3,-122.89 38.47,-113.99 28.25,-97.99 21.86,-87.99 20.69,-75.14 21.45,-63.68"/>
<polygon fill="#28a745" stroke="#28a745" points="24.91,-64.28 22.63,-53.93 17.96,-63.44 24.91,-64.28"/>
<text xml:space="preserve" text-anchor="middle" x="90.12" y="-88.49" font-family="Helvetica,sans-Serif" font-size="10.00">company MUST issue ... [5]</text>
</g>
<!-- 2 -->
<g id="node3" class="node">
<title>2</title>
<ellipse fill="#f8d7da" stroke="black" cx="174" cy="-34.37" rx="30.37" ry="30.37"/>
<ellipse fill="none" stroke="black" cx="174" cy="-34.37" rx="34.37" ry="34.37"/>
<text xml:space="preserve" text-anchor="middle" x="174" y="-29.92" font-family="Helvetica,sans-Serif" font-size="11.00">Breach</text>
</g>
<!-- 0&#45;&gt;2 -->
<g id="edge2" class="edge">
<title>0&#45;&gt;2</title>
<path fill="none" stroke="#dc3545" stroke-dasharray="5,2" d="M121.41,-122.74C131.89,-116.79 143.95,-108.4 152,-97.99 156.39,-92.3 159.95,-85.67 162.82,-78.9"/>
<polygon fill="#dc3545" stroke="#dc3545" points="166.05,-80.25 166.26,-69.66 159.49,-77.81 166.05,-80.25"/>
<text xml:space="preserve" text-anchor="middle" x="174.9" y="-88.49" font-family="Helvetica,sans-Serif" font-size="10.00">timeout</text>
</g>
</g>
</svg>
