<?xml version="1.0" encoding="UTF-8" standalone="no"?>
<!DOCTYPE svg PUBLIC "-//W3C//DTD SVG 1.1//EN"
 "http://www.w3.org/Graphics/SVG/1.1/DTD/svg11.dtd">
<!-- Generated by graphviz version 14.1.0 (20251206.1807)
 -->
<!-- Pages: 1 -->
<svg width="286pt" height="183pt"
 viewBox="0.00 0.00 286.00 183.00" xmlns="http://www.w3.org/2000/svg" xmlns:xlink="http://www.w3.org/1999/xlink">
<g id="graph0" class="graph" transform="scale(1 1) rotate(0) translate(4 178.99)">
<polygon fill="white" stroke="none" points="-4,4 -4,-178.99 282.37,-178.99 282.37,4 -4,4"/>
<text xml:space="preserve" text-anchor="middle" x="139.18" y="-157.69" font-family="Helvetica,sans-Serif" font-size="14.00">serviceContract</text>
<!-- 0 -->
<g id="node1" class="node">
<title>0</title>
<ellipse fill="#e8f4fd" stroke="black" cx="135" cy="-133.99" rx="27" ry="18"/>
<text xml:space="preserve" text-anchor="middle" x="135" y="-129.54" font-family="Helvetica,sans-Serif" font-size="11.00">initial</text>
</g>
<!-- 1 -->
<g id="node2" class="node">
<title>1</title>
<ellipse fill="#ffffff" stroke="black" cx="27" cy="-34.37" rx="27" ry="18"/>
<text xml:space="preserve" text-anchor="middle" x="27" y="-29.92" font-family="Helvetica,sans-Serif" font-size="11.00">next</text>
</g>
<!-- 0&#45;&gt;1 -->
<g id="edge1" class="edge">
<title>0&#45;&gt;1</title>
<path fill="none" stroke="#28a745" d="M107.94,-132.49C82.63,-130.41 46.07,-122.92 27.75,-97.99 20.6,-88.26 19.51,-75.2 20.57,-63.52"/>
<polygon fill="#28a745" stroke="#28a745" points="23.98,-64.38 21.98,-53.97 17.06,-63.35 23.98,-64.38"/>
<text xml:space="preserve" text-anchor="middle" x="124.88" y="-88.49" font-family="Helvetica,sans-Serif" font-size="10.00">serviceProvider MUST ProvideService ... [7]</text>
</g>
<!-- 2 -->
<g id="node3" class="node">
<title>2</title>
<ellipse fill="#f8d7da" stroke="black" cx="244" cy="-34.37" rx="30.37" ry="30.37"/>
<ellipse fill="none" stroke="black" cx="244" cy="-34.37" rx="34.37" ry="34.37"/>
<text xml:space="preserve" text-anchor="middle" x="244" y="-29.92" font-family="Helvetica,sans-Serif" font-size="11.00">Breach</text>
</g>
<!-- 0&#45;&gt;2 -->
<g id="edge2" class="edge">
<title>0&#45;&gt;2</title>
<path fill="none" stroke="#dc3545" stroke-dasharray="5,2" d="M161.08,-128.48C180.29,-123.88 205.8,-114.93 222,-97.99 227.19,-92.56 231.16,-85.84 234.2,-78.83"/>
<polygon fill="#dc3545" stroke="#dc3545" points="237.32,-80.49 237.5,-69.9 230.75,-78.07 237.32,-80.49"/>
<text xml:space="preserve" text-anchor="middle" x="245.63" y="-88.49" font-family="Helvetica,sans-Serif" font-size="10.00">timeout</text>
</g>
</g>
</svg>
