<?xml version="1.0" encoding="UTF-8" standalone="no"?>
<!DOCTYPE svg PUBLIC "-//W3C//DTD SVG 1.1//EN"
 "http://www.w3.org/Graphics/SVG/1.1/DTD/svg11.dtd">
<!-- Generated by graphviz version 14.1.0 (20251206.1807)
 -->
<!-- Pages: 1 -->
<svg width="232pt" height="183pt"
 viewBox="0.00 0.00 232.00 183.00" xmlns="http://www.w3.org/2000/svg" xmlns:xlink="http://www.w3.org/1999/xlink">
<g id="graph0" class="graph" transform="scale(1 1) rotate(0) translate(4 178.99)">
<polygon fill="white" stroke="none" points="-4,4 -4,-178.99 228.37,-178.99 228.37,4 -4,4"/>
<text xml:space="preserve" text-anchor="middle" x="112.18" y="-157.69" font-family="Helvetica,sans-Serif" font-size="14.00">simplePayment</text>
<!-- 0 -->
<g id="node1" class="node">
<title>0</title>
<ellipse fill="#e8f4fd" stroke="black" cx="108" cy="-133.99" rx="27" ry="18"/>
<text xml:space="preserve" text-anchor="middle" x="108" y="-129.54" font-family="Helvetica,sans-Serif" font-size="11.00">initial</text>
</g>
<!-- 1 -->
<g id="node2" class="node">
<title>1</title>
<ellipse fill="#ffffff" stroke="black" cx="27" cy="-34.37" rx="27" ry="18"/>
<text xml:space="preserve" text-anchor="middle" x="27" y="-29.92" font-family="Helvetica,sans-Serif" font-size="11.00">next</text>
</g>
<!-- 0&#45;&gt;1 -->
<g id="edge1" class="edge">
<title>0&#45;&gt;1</title>
<path fill="none" stroke="#28a745" d="M81.83,-128.93C63.57,-124.6 40.41,-115.78 28.5,-97.99 21.9,-88.13 20.65,-75.3 21.39,-63.82"/>
<polygon fill="#28a745" stroke="#28a745" points="24.85,-64.38 22.57,-54.04 17.9,-63.55 24.85,-64.38"/>
<text xml:space="preserve" text-anchor="middle" x="98.25" y="-88.49" font-family="Helvetica,sans-Serif" font-size="10.00">debtor MUST PayMoney ... [30]</text>
</g>
<!-- 2 -->
<g id="node3" class="node">
<title>2</title>
<ellipse fill="#f8d7da" stroke="black" cx="190" cy="-34.37" rx="30.37" ry="30.37"/>
<ellipse fill="none" stroke="black" cx="190" cy="-34.37" rx="34.37" ry="34.37"/>
<text xml:space="preserve" text-anchor="middle" x="190" y="-29.92" font-family="Helvetica,sans-Serif" font-size="11.00">Breach</text>
</g>
<!-- 0&#45;&gt;2 -->
<g id="edge2" class="edge">
<title>0&#45;&gt;2</title>
<path fill="none" stroke="#dc3545" stroke-dasharray="5,2" d="M131.22,-124.14C143.64,-118.36 158.32,-109.7 168,-97.99 172.57,-92.45 176.23,-85.89 179.13,-79.14"/>
<polygon fill="#dc3545" stroke="#dc3545" points="182.36,-80.51 182.58,-69.92 175.8,-78.06 182.36,-80.51"/>
<text xml:space="preserve" text-anchor="middle" x="191.13" y="-88.49" font-family="Helvetica,sans-Serif" font-size="10.00">timeout</text>
</g>
</g>
</svg>
