<?xml version="1.0" encoding="UTF-8" standalone="no"?>
<!DOCTYPE svg PUBLIC "-//W3C//DTD SVG 1.1//EN"
 "http://www.w3.org/Graphics/SVG/1.1/DTD/svg11.dtd">
<!-- Generated by graphviz version 14.1.0 (20251206.1807)
 -->
<!-- Pages: 1 -->
<svg width="236pt" height="183pt"
 viewBox="0.00 0.00 236.00 183.00" xmlns="http://www.w3.org/2000/svg" xmlns:xlink="http://www.w3.org/1999/xlink">
<g id="graph0" class="graph" transform="scale(1 1) rotate(0) translate(4 178.99)">
<polygon fill="white" stroke="none" points="-4,4 -4,-178.99 232.37,-178.99 232.37,4 -4,4"/>
<text xml:space="preserve" text-anchor="middle" x="114.18" y="-157.69" font-family="Helvetica,sans-Serif" font-size="14.00">Spouse2 loves Spouse1</text>
<!-- 0 -->
<g id="node1" class="node">
<title>0</title>
<ellipse fill="#e8f4fd" stroke="black" cx="110" cy="-133.99" rx="27" ry="18"/>
<text xml:space="preserve" text-anchor="middle" x="110" y="-129.54" font-family="Helvetica,sans-Serif" font-size="11.00">initial</text>
</g>
<!-- 1 -->
<g id="node2" class="node">
<title>1</title>
<ellipse fill="#ffffff" stroke="black" cx="27" cy="-34.37" rx="27" ry="18"/>
<text xml:space="preserve" text-anchor="middle" x="27" y="-29.92" font-family="Helvetica,sans-Serif" font-size="11.00">next</text>
</g>
<!-- 0&#45;&gt;1 -->
<g id="edge1" class="edge">
<title>0&#45;&gt;1</title>
<path fill="none" stroke="#28a745" d="M83.79,-129.37C64.82,-125.25 40.43,-116.49 28,-97.99 21.38,-88.14 20.23,-75.31 21.07,-63.83"/>
<polygon fill="#28a745" stroke="#28a745" points="24.53,-64.41 22.35,-54.04 17.59,-63.51 24.53,-64.41"/>
<text xml:space="preserve" text-anchor="middle" x="100" y="-88.49" font-family="Helvetica,sans-Serif" font-size="10.00">Spouse2 MUST love and cherish</text>
</g>
<!-- 2 -->
<g id="node3" class="node">
<title>2</title>
<ellipse fill="#f8d7da" stroke="black" cx="194" cy="-34.37" rx="30.37" ry="30.37"/>
<ellipse fill="none" stroke="black" cx="194" cy="-34.37" rx="34.37" ry="34.37"/>
<text xml:space="preserve" text-anchor="middle" x="194" y="-29.92" font-family="Helvetica,sans-Serif" font-size="11.00">Breach</text>
</g>
<!-- 0&#45;&gt;2 -->
<g id="edge2" class="edge">
<title>0&#45;&gt;2</title>
<path fill="none" stroke="#dc3545" stroke-dasharray="5,2" d="M133.38,-124.58C146.34,-118.86 161.84,-110.11 172,-97.99 176.61,-92.48 180.28,-85.94 183.2,-79.2"/>
<polygon fill="#dc3545" stroke="#dc3545" points="186.42,-80.57 186.65,-69.98 179.87,-78.12 186.42,-80.57"/>
<text xml:space="preserve" text-anchor="middle" x="195.18" y="-88.49" font-family="Helvetica,sans-Serif" font-size="10.00">timeout</text>
</g>
</g>
</svg>
