<?xml version="1.0" encoding="UTF-8" standalone="no"?>
<!DOCTYPE svg PUBLIC "-//W3C//DTD SVG 1.1//EN"
 "http://www.w3.org/Graphics/SVG/1.1/DTD/svg11.dtd">
<!-- Generated by graphviz version 14.1.0 (20251206.1807)
 -->
<!-- Pages: 1 -->
<svg width="226pt" height="183pt"
 viewBox="0.00 0.00 226.00 183.00" xmlns="http://www.w3.org/2000/svg" xmlns:xlink="http://www.w3.org/1999/xlink">
<g id="graph0" class="graph" transform="scale(1 1) rotate(0) translate(4 178.99)">
<polygon fill="white" stroke="none" points="-4,4 -4,-178.99 222.37,-178.99 222.37,4 -4,4"/>
<text xml:space="preserve" text-anchor="middle" x="109.18" y="-157.69" font-family="Helvetica,sans-Serif" font-size="14.00">Spouse1 holds Spouse2</text>
<!-- 0 -->
<g id="node1" class="node">
<title>0</title>
<ellipse fill="#e8f4fd" stroke="black" cx="105" cy="-133.99" rx="27" ry="18"/>
<text xml:space="preserve" text-anchor="middle" x="105" y="-129.54" font-family="Helvetica,sans-Serif" font-size="11.00">initial</text>
</g>
<!-- 1 -->
<g id="node2" class="node">
<title>1</title>
<ellipse fill="#ffffff" stroke="black" cx="27" cy="-34.37" rx="27" ry="18"/>
<text xml:space="preserve" text-anchor="middle" x="27" y="-29.92" font-family="Helvetica,sans-Serif" font-size="11.00">next</text>
</g>
<!-- 0&#45;&gt;1 -->
<g id="edge1" class="edge">
<title>0&#45;&gt;1</title>
<path fill="none" stroke="#28a745" d="M79.05,-128.45C61.58,-123.92 39.75,-115.06 28.5,-97.99 21.97,-88.08 20.73,-75.24 21.46,-63.78"/>
<polygon fill="#28a745" stroke="#28a745" points="24.92,-64.34 22.62,-54 17.97,-63.52 24.92,-64.34"/>
<text xml:space="preserve" text-anchor="middle" x="95.25" y="-88.49" font-family="Helvetica,sans-Serif" font-size="10.00">Spouse1 MUST have and hold</text>
</g>
<!-- 2 -->
<g id="node3" class="node">
<title>2</title>
<ellipse fill="#f8d7da" stroke="black" cx="184" cy="-34.37" rx="30.37" ry="30.37"/>
<ellipse fill="none" stroke="black" cx="184" cy="-34.37" rx="34.37" ry="34.37"/>
<text xml:space="preserve" text-anchor="middle" x="184" y="-29.92" font-family="Helvetica,sans-Serif" font-size="11.00">Breach</text>
</g>
<!-- 0&#45;&gt;2 -->
<g id="edge2" class="edge">
<title>0&#45;&gt;2</title>
<path fill="none" stroke="#dc3545" stroke-dasharray="5,2" d="M127.62,-123.6C139.3,-117.75 152.96,-109.19 162,-97.99 166.51,-92.39 170.13,-85.81 173.02,-79.06"/>
<polygon fill="#dc3545" stroke="#dc3545" points="176.25,-80.42 176.47,-69.83 169.69,-77.97 176.25,-80.42"/>
<text xml:space="preserve" text-anchor="middle" x="185.05" y="-88.49" font-family="Helvetica,sans-Serif" font-size="10.00">timeout</text>
</g>
</g>
</svg>
