<?xml version="1.0" encoding="UTF-8" standalone="no"?>
<!DOCTYPE svg PUBLIC "-//W3C//DTD SVG 1.1//EN"
 "http://www.w3.org/Graphics/SVG/1.1/DTD/svg11.dtd">
<!-- Generated by graphviz version 14.1.0 (20251206.1807)
 -->
<!-- Pages: 1 -->
<svg width="197pt" height="183pt"
 viewBox="0.00 0.00 197.00 183.00" xmlns="http://www.w3.org/2000/svg" xmlns:xlink="http://www.w3.org/1999/xlink">
<g id="graph0" class="graph" transform="scale(1 1) rotate(0) translate(4 178.99)">
<polygon fill="white" stroke="none" points="-4,4 -4,-178.99 193.37,-178.99 193.37,4 -4,4"/>
<text xml:space="preserve" text-anchor="middle" x="94.68" y="-157.69" font-family="Helvetica,sans-Serif" font-size="14.00">support in all circumstances</text>
<!-- 0 -->
<g id="node1" class="node">
<title>0</title>
<ellipse fill="#e8f4fd" stroke="black" cx="91" cy="-133.99" rx="27" ry="18"/>
<text xml:space="preserve" text-anchor="middle" x="91" y="-129.54" font-family="Helvetica,sans-Serif" font-size="11.00">initial</text>
</g>
<!-- 1 -->
<g id="node2" class="node">
<title>1</title>
<ellipse fill="#ffffff" stroke="black" cx="27" cy="-34.37" rx="27" ry="18"/>
<text xml:space="preserve" text-anchor="middle" x="27" y="-29.92" font-family="Helvetica,sans-Serif" font-size="11.00">next</text>
</g>
<!-- 0&#45;&gt;1 -->
<g id="edge1" class="edge">
<title>0&#45;&gt;1</title>
<path fill="none" stroke="#28a745" d="M66.31,-126.04C52.48,-120.75 36.36,-111.94 28,-97.99 21.94,-87.88 20.84,-75.11 21.57,-63.74"/>
<polygon fill="#28a745" stroke="#28a745" points="25.02,-64.42 22.7,-54.08 18.06,-63.6 25.02,-64.42"/>
<text xml:space="preserve" text-anchor="middle" x="80.5" y="-88.49" font-family="Helvetica,sans-Serif" font-size="10.00">Spouse1 MUST support</text>
</g>
<!-- 2 -->
<g id="node3" class="node">
<title>2</title>
<ellipse fill="#f8d7da" stroke="black" cx="155" cy="-34.37" rx="30.37" ry="30.37"/>
<ellipse fill="none" stroke="black" cx="155" cy="-34.37" rx="34.37" ry="34.37"/>
<text xml:space="preserve" text-anchor="middle" x="155" y="-29.92" font-family="Helvetica,sans-Serif" font-size="11.00">Breach</text>
</g>
<!-- 0&#45;&gt;2 -->
<g id="edge2" class="edge">
<title>0&#45;&gt;2</title>
<path fill="none" stroke="#dc3545" stroke-dasharray="5,2" d="M109.73,-120.83C117.82,-114.79 126.83,-106.87 133,-97.99 137.05,-92.15 140.43,-85.49 143.22,-78.74"/>
<polygon fill="#dc3545" stroke="#dc3545" points="146.42,-80.18 146.62,-69.59 139.86,-77.75 146.42,-80.18"/>
<text xml:space="preserve" text-anchor="middle" x="155.52" y="-88.49" font-family="Helvetica,sans-Serif" font-size="10.00">timeout</text>
</g>
</g>
</svg>
