<?xml version="1.0" encoding="UTF-8" standalone="no"?>
<!DOCTYPE svg PUBLIC "-//W3C//DTD SVG 1.1//EN"
 "http://www.w3.org/Graphics/SVG/1.1/DTD/svg11.dtd">
<!-- Generated by graphviz version 14.1.0 (20251206.1807)
 -->
<!-- Pages: 1 -->
<svg width="307pt" height="266pt"
 viewBox="0.00 0.00 307.00 266.00" xmlns="http://www.w3.org/2000/svg" xmlns:xlink="http://www.w3.org/1999/xlink">
<g id="graph0" class="graph" transform="scale(1 1) rotate(0) translate(4 262.24)">
<polygon fill="white" stroke="none" points="-4,4 -4,-262.24 302.85,-262.24 302.85,4 -4,4"/>
<text xml:space="preserve" text-anchor="middle" x="149.42" y="-240.94" font-family="Helvetica,sans-Serif" font-size="14.00">wedding ceremony</text>
<!-- 0 -->
<g id="node1" class="node">
<title>0</title>
<ellipse fill="#e8f4fd" stroke="black" cx="182.57" cy="-217.24" rx="27" ry="18"/>
<text xml:space="preserve" text-anchor="middle" x="182.57" y="-212.79" font-family="Helvetica,sans-Serif" font-size="11.00">initial</text>
</g>
<!-- 1 -->
<g id="node2" class="node">
<title>1</title>
<ellipse fill="#ffffff" stroke="black" cx="97.57" cy="-133.99" rx="97.57" ry="18"/>
<text xml:space="preserve" text-anchor="middle" x="97.57" y="-129.54" font-family="Helvetica,sans-Serif" font-size="11.00">Spouse2 must exchange vows</text>
</g>
<!-- 0&#45;&gt;1 -->
<g id="edge1" class="edge">
<title>0&#45;&gt;1</title>
<path fill="none" stroke="#28a745" d="M156.06,-212.92C136.54,-208.94 111.22,-200.23 98.32,-181.24 94.76,-176 93.33,-169.61 93.04,-163.27"/>
<polygon fill="#28a745" stroke="#28a745" points="96.51,-163.84 93.48,-153.69 89.52,-163.52 96.51,-163.84"/>
<text xml:space="preserve" text-anchor="middle" x="175.94" y="-171.74" font-family="Helvetica,sans-Serif" font-size="10.00">Spouse1 MUST exchange vows [1]</text>
</g>
<!-- 3 -->
<g id="node4" class="node">
<title>3</title>
<ellipse fill="#f8d7da" stroke="black" cx="243.57" cy="-34.37" rx="30.37" ry="30.37"/>
<ellipse fill="none" stroke="black" cx="243.57" cy="-34.37" rx="34.37" ry="34.37"/>
<text xml:space="preserve" text-anchor="middle" x="243.57" y="-29.92" font-family="Helvetica,sans-Serif" font-size="11.00">Breach</text>
</g>
<!-- 0&#45;&gt;3 -->
<g id="edge2" class="edge">
<title>0&#45;&gt;3</title>
<path fill="none" stroke="#dc3545" stroke-dasharray="5,2" d="M208.24,-210.84C224.28,-205.99 243.7,-197.11 253.57,-181.24 272.67,-150.52 267.41,-108.8 258.99,-77.85"/>
<polygon fill="#dc3545" stroke="#dc3545" points="262.39,-77.03 256.21,-68.42 255.68,-79 262.39,-77.03"/>
<text xml:space="preserve" text-anchor="middle" x="282.72" y="-130.11" font-family="Helvetica,sans-Serif" font-size="10.00">timeout</text>
</g>
<!-- 2 -->
<g id="node3" class="node">
<title>2</title>
<ellipse fill="#ffffff" stroke="black" cx="42.57" cy="-34.37" rx="27" ry="18"/>
<text xml:space="preserve" text-anchor="middle" x="42.57" y="-29.92" font-family="Helvetica,sans-Serif" font-size="11.00">next</text>
</g>
<!-- 1&#45;&gt;2 -->
<g id="edge3" class="edge">
<title>1&#45;&gt;2</title>
<path fill="none" stroke="#28a745" d="M61.49,-116.85C54.23,-111.87 47.55,-105.64 43.32,-97.99 37.62,-87.67 36.61,-74.87 37.34,-63.54"/>
<polygon fill="#28a745" stroke="#28a745" points="40.78,-64.26 38.44,-53.92 33.83,-63.46 40.78,-64.26"/>
<text xml:space="preserve" text-anchor="middle" x="120.94" y="-88.49" font-family="Helvetica,sans-Serif" font-size="10.00">Spouse2 MUST exchange vows [1]</text>
</g>
<!-- 1&#45;&gt;3 -->
<g id="edge4" class="edge">
<title>1&#45;&gt;3</title>
<path fill="none" stroke="#dc3545" stroke-dasharray="5,2" d="M156.68,-119.25C171.26,-114.11 186.22,-107.19 198.57,-97.99 207.08,-91.64 214.64,-83.21 221.01,-74.61"/>
<polygon fill="#dc3545" stroke="#dc3545" points="223.79,-76.75 226.6,-66.53 218.03,-72.77 223.79,-76.75"/>
<text xml:space="preserve" text-anchor="middle" x="227.09" y="-88.49" font-family="Helvetica,sans-Serif" font-size="10.00">timeout</text>
</g>
</g>
</svg>
