<?xml version="1.0" encoding="UTF-8" standalone="no"?>
<!DOCTYPE svg PUBLIC "-//W3C//DTD SVG 1.1//EN"
 "http://www.w3.org/Graphics/SVG/1.1/DTD/svg11.dtd">
<!-- Generated by graphviz version 14.1.0 (20251206.1807)
 -->
<!-- Pages: 1 -->
<svg width="190pt" height="186pt"
 viewBox="0.00 0.00 190.00 186.00" xmlns="http://www.w3.org/2000/svg" xmlns:xlink="http://www.w3.org/1999/xlink">
<g id="graph0" class="graph" transform="scale(1 1) rotate(0) translate(4 181.69)">
<polygon fill="white" stroke="none" points="-4,4 -4,-181.69 186.09,-181.69 186.09,4 -4,4"/>
<text xml:space="preserve" text-anchor="middle" x="91.04" y="-160.39" font-family="Helvetica,sans-Serif" font-size="14.00">x</text>
<!-- 0 -->
<g id="node1" class="node">
<title>0</title>
<ellipse fill="#e8f4fd" stroke="black" cx="91.72" cy="-136.69" rx="27" ry="18"/>
<text xml:space="preserve" text-anchor="middle" x="91.72" y="-132.24" font-family="Helvetica,sans-Serif" font-size="11.00">initial</text>
</g>
<!-- 1 -->
<g id="node2" class="node">
<title>1</title>
<ellipse fill="#d4edda" stroke="black" cx="35.72" cy="-35.72" rx="31.72" ry="31.72"/>
<ellipse fill="none" stroke="black" cx="35.72" cy="-35.72" rx="35.72" ry="35.72"/>
<text xml:space="preserve" text-anchor="middle" x="35.72" y="-31.27" font-family="Helvetica,sans-Serif" font-size="11.00">Fulfilled</text>
</g>
<!-- 0&#45;&gt;1 -->
<g id="edge1" class="edge">
<title>0&#45;&gt;1</title>
<path fill="none" stroke="#28a745" d="M68.27,-127.18C56.51,-121.58 43.33,-112.99 36.47,-100.69 33.39,-95.17 31.65,-88.95 30.79,-82.61"/>
<polygon fill="#28a745" stroke="#28a745" points="34.29,-82.48 30.21,-72.7 27.3,-82.89 34.29,-82.48"/>
<text xml:space="preserve" text-anchor="middle" x="81.1" y="-91.19" font-family="Helvetica,sans-Serif" font-size="10.00">S MUST delivery [3]</text>
</g>
<!-- 2 -->
<g id="node3" class="node">
<title>2</title>
<ellipse fill="#f8d7da" stroke="black" cx="147.72" cy="-35.72" rx="30.37" ry="30.37"/>
<ellipse fill="none" stroke="black" cx="147.72" cy="-35.72" rx="34.37" ry="34.37"/>
<text xml:space="preserve" text-anchor="middle" x="147.72" y="-31.27" font-family="Helvetica,sans-Serif" font-size="11.00">Breach</text>
</g>
<!-- 0&#45;&gt;2 -->
<g id="edge2" class="edge">
<title>0&#45;&gt;2</title>
<path fill="none" stroke="#dc3545" stroke-dasharray="5,2" d="M107.87,-121.94C114.13,-115.93 120.93,-108.49 125.72,-100.69 129.6,-94.38 132.9,-87.29 135.68,-80.2"/>
<polygon fill="#dc3545" stroke="#dc3545" points="138.92,-81.54 138.98,-70.95 132.32,-79.19 138.92,-81.54"/>
<text xml:space="preserve" text-anchor="middle" x="147.11" y="-91.19" font-family="Helvetica,sans-Serif" font-size="10.00">timeout</text>
</g>
</g>
</svg>
