<?xml version="1.0" encoding="UTF-8" standalone="no"?>
<!DOCTYPE svg PUBLIC "-//W3C//DTD SVG 1.1//EN"
 "http://www.w3.org/Graphics/SVG/1.1/DTD/svg11.dtd">
<!-- Generated by graphviz version 14.1.0 (20251206.1807)
 -->
<!-- Pages: 1 -->
<svg width="206pt" height="186pt"
 viewBox="0.00 0.00 206.00 186.00" xmlns="http://www.w3.org/2000/svg" xmlns:xlink="http://www.w3.org/1999/xlink">
<g id="graph0" class="graph" transform="scale(1 1) rotate(0) translate(4 181.69)">
<polygon fill="white" stroke="none" points="-4,4 -4,-181.69 202.09,-181.69 202.09,4 -4,4"/>
<text xml:space="preserve" text-anchor="middle" x="99.04" y="-160.39" font-family="Helvetica,sans-Serif" font-size="14.00">y</text>
<!-- 0 -->
<g id="node1" class="node">
<title>0</title>
<ellipse fill="#e8f4fd" stroke="black" cx="99.72" cy="-136.69" rx="27" ry="18"/>
<text xml:space="preserve" text-anchor="middle" x="99.72" y="-132.24" font-family="Helvetica,sans-Serif" font-size="11.00">initial</text>
</g>
<!-- 1 -->
<g id="node2" class="node">
<title>1</title>
<ellipse fill="#d4edda" stroke="black" cx="35.72" cy="-35.72" rx="31.72" ry="31.72"/>
<ellipse fill="none" stroke="black" cx="35.72" cy="-35.72" rx="35.72" ry="35.72"/>
<text xml:space="preserve" text-anchor="middle" x="35.72" y="-31.27" font-family="Helvetica,sans-Serif" font-size="11.00">Fulfilled</text>
</g>
<!-- 0&#45;&gt;1 -->
<g id="edge1" class="edge">
<title>0&#45;&gt;1</title>
<path fill="none" stroke="#28a745" d="M75.03,-128.74C61.19,-123.45 45.08,-114.65 36.72,-100.69 33.47,-95.27 31.62,-89.1 30.7,-82.78"/>
<polygon fill="#28a745" stroke="#28a745" points="34.2,-82.64 30.06,-72.89 27.22,-83.1 34.2,-82.64"/>
<text xml:space="preserve" text-anchor="middle" x="89.22" y="-91.19" font-family="Helvetica,sans-Serif" font-size="10.00">B MUST payment ... [5]</text>
</g>
<!-- 2 -->
<g id="node3" class="node">
<title>2</title>
<ellipse fill="#f8d7da" stroke="black" cx="163.72" cy="-35.72" rx="30.37" ry="30.37"/>
<ellipse fill="none" stroke="black" cx="163.72" cy="-35.72" rx="34.37" ry="34.37"/>
<text xml:space="preserve" text-anchor="middle" x="163.72" y="-31.27" font-family="Helvetica,sans-Serif" font-size="11.00">Breach</text>
</g>
<!-- 0&#45;&gt;2 -->
<g id="edge2" class="edge">
<title>0&#45;&gt;2</title>
<path fill="none" stroke="#dc3545" stroke-dasharray="5,2" d="M118.48,-123.55C126.58,-117.51 135.58,-109.6 141.72,-100.69 145.97,-94.53 149.47,-87.47 152.32,-80.34"/>
<polygon fill="#dc3545" stroke="#dc3545" points="155.59,-81.59 155.67,-71 149,-79.23 155.59,-81.59"/>
<text xml:space="preserve" text-anchor="middle" x="164.32" y="-91.19" font-family="Helvetica,sans-Serif" font-size="10.00">timeout</text>
</g>
</g>
</svg>
